<svg xmlns="http://www.w3.org/2000/svg" xmlns:xlink="http://www.w3.org/1999/xlink" width="500" zoomAndPan="magnify" viewBox="0 0 375 374.999991" height="500" preserveAspectRatio="xMidYMid meet" version="1.0"><defs><g/><clipPath id="af81e3c7b6"><path d="M 89.9375 82.28125 L 284.9375 82.28125 L 284.9375 195.53125 L 89.9375 195.53125 Z M 89.9375 82.28125 " clip-rule="nonzero"/></clipPath><clipPath id="fdd25d1fe6"><path d="M 133.136719 124.429688 L 250.886719 124.429688 L 250.886719 229.429688 L 133.136719 229.429688 Z M 133.136719 124.429688 " clip-rule="nonzero"/></clipPath></defs><g clip-path="url(#af81e3c7b6)"><path fill="#a37b40" d="M 283.058594 195.53125 C 284.917969 181.835938 283.96875 167.765625 280.125 154.566406 C 278.226562 147.949219 275.621094 141.574219 272.398438 135.492188 C 272.027344 134.707031 271.570312 134.003906 271.160156 133.257812 L 269.878906 131.023438 C 268.96875 129.574219 268.019531 128.128906 267.109375 126.679688 C 266.117188 125.273438 265.125 123.867188 264.09375 122.5 L 262.480469 120.472656 C 261.945312 119.8125 261.40625 119.109375 260.828125 118.488281 C 251.902344 108.101562 240.871094 99.496094 228.515625 93.660156 C 216.117188 87.910156 202.523438 84.722656 188.84375 84.558594 C 175.207031 84.308594 161.449219 86.917969 148.925781 92.417969 C 136.363281 97.796875 125 105.949219 115.746094 116.046875 C 106.488281 126.183594 99.421875 138.265625 95.164062 151.339844 C 92.976562 157.878906 91.570312 164.621094 90.867188 171.492188 C 90.164062 178.359375 90.125 185.269531 90.828125 192.179688 C 90.371094 188.746094 90.082031 185.3125 90 181.835938 C 89.960938 180.96875 90 180.097656 90 179.230469 L 90.042969 176.621094 C 90.042969 175.753906 90.082031 174.882812 90.164062 174.015625 L 90.332031 171.410156 C 90.910156 164.5 92.191406 157.628906 94.214844 151.007812 C 98.347656 137.726562 105.332031 125.355469 114.585938 114.96875 C 123.84375 104.585938 135.414062 96.226562 148.183594 90.597656 C 160.910156 84.972656 174.960938 82.28125 188.886719 82.488281 C 202.8125 82.738281 216.738281 86.003906 229.300781 92.003906 C 241.859375 98.046875 253.101562 106.859375 261.984375 117.578125 C 262.5625 118.238281 263.101562 118.941406 263.636719 119.605469 L 265.25 121.671875 C 266.28125 123.078125 267.273438 124.527344 268.265625 125.933594 C 269.175781 127.425781 270.125 128.871094 271.035156 130.363281 L 272.316406 132.636719 C 272.730469 133.382812 273.183594 134.128906 273.554688 134.914062 C 276.738281 141.078125 279.300781 147.617188 281.117188 154.320312 C 282.894531 161.023438 283.96875 167.933594 284.300781 174.84375 C 284.421875 178.320312 284.507812 181.753906 284.257812 185.230469 C 284.050781 188.703125 283.636719 192.140625 283.058594 195.53125 Z M 283.058594 195.53125 " fill-opacity="1" fill-rule="nonzero"/></g><path fill="#a37b40" d="M 139.097656 164.144531 C 138.964844 164.097656 138.785156 164.007812 138.648438 163.960938 C 138.785156 164.007812 138.917969 164.054688 139.097656 164.144531 Z M 139.097656 164.144531 " fill-opacity="1" fill-rule="nonzero"/><g clip-path="url(#fdd25d1fe6)"><path fill="#a37b40" d="M 242.539062 226.539062 C 239.929688 225.589844 237.496094 224.324219 235.335938 222.742188 C 233.171875 221.160156 231.191406 219.265625 229.300781 217.140625 C 227.5 215.015625 225.5625 212.578125 223.582031 209.820312 L 200.839844 177.652344 L 202.371094 177.335938 C 205.972656 176.566406 209.394531 175.484375 212.503906 174.082031 C 215.566406 172.683594 218.265625 170.921875 220.519531 168.84375 C 222.726562 166.765625 224.480469 164.1875 225.789062 161.207031 C 227.046875 158.226562 227.679688 154.746094 227.679688 150.859375 C 227.679688 146.976562 227.046875 143.585938 225.878906 140.785156 C 224.660156 137.984375 223.039062 135.589844 220.96875 133.648438 C 218.898438 131.660156 216.464844 130.078125 213.765625 128.902344 C 210.972656 127.726562 208 126.777344 204.890625 126.101562 C 201.785156 125.421875 198.589844 124.972656 195.34375 124.746094 C 192.101562 124.519531 188.859375 124.429688 185.753906 124.429688 L 146.574219 124.429688 L 146.574219 125.242188 C 149.59375 125.289062 152.023438 125.515625 153.914062 125.875 C 156.167969 126.328125 157.878906 127.277344 159.050781 128.632812 C 159.726562 129.398438 160.265625 130.347656 160.671875 131.433594 C 160.625 131.34375 160.535156 131.253906 160.488281 131.207031 C 160.355469 131.027344 159.996094 130.980469 159.769531 131.207031 C 157.292969 133.78125 154.546875 136.539062 153.238281 139.65625 L 152.789062 138.753906 C 152.65625 138.527344 152.292969 138.617188 152.070312 138.796875 C 149.636719 141.28125 148.960938 144.582031 149.59375 147.246094 C 149.863281 148.332031 150.3125 149.324219 150.851562 150.226562 C 150.761719 150.316406 150.71875 150.453125 150.761719 150.589844 C 151.753906 154.160156 153.148438 158 156.933594 159.355469 C 157.382812 159.535156 157.878906 159.625 158.328125 159.671875 C 158.285156 159.671875 158.285156 159.714844 158.238281 159.714844 C 156.753906 161.207031 155.222656 162.699219 153.824219 164.277344 C 153.78125 164.007812 153.691406 163.78125 153.554688 163.554688 C 153.105469 162.789062 152.203125 162.382812 151.4375 162.019531 C 150.941406 161.792969 150.492188 161.613281 149.996094 161.386719 C 149.90625 161.34375 149.863281 161.476562 149.90625 161.523438 C 150.402344 162.019531 150.582031 162.742188 150.851562 163.421875 C 150.988281 163.78125 151.167969 164.097656 151.394531 164.371094 C 151.617188 164.640625 151.890625 164.910156 152.25 165.09375 C 152.429688 165.226562 152.65625 165.316406 152.878906 165.363281 C 151.84375 166.582031 150.941406 167.894531 150.132812 169.292969 C 149.59375 170.242188 149.140625 171.191406 148.738281 172.1875 C 147.835938 170.605469 146.574219 169.203125 145.132812 168.074219 L 143.828125 165.136719 C 143.0625 163.78125 141.710938 162.699219 140.136719 162.199219 C 139.324219 161.929688 138.46875 161.882812 137.613281 161.929688 C 137.296875 161.976562 136.847656 162.019531 136.667969 162.292969 C 136.53125 162.515625 136.621094 162.878906 136.757812 163.105469 C 135.542969 163.238281 134.417969 163.554688 133.289062 163.960938 C 133.15625 164.007812 133.15625 164.1875 133.289062 164.234375 C 134.101562 164.640625 134.820312 165.183594 135.496094 165.769531 C 135.089844 166.492188 135.136719 167.398438 135.496094 168.121094 C 135.902344 168.886719 136.578125 169.382812 137.296875 169.746094 C 138.648438 170.378906 140.179688 170.515625 141.710938 170.199219 C 142.523438 170.015625 143.289062 169.746094 144.054688 169.382812 C 144.144531 169.382812 144.1875 169.339844 144.277344 169.339844 C 144.277344 169.339844 144.324219 169.382812 144.324219 169.382812 C 144.457031 169.476562 144.636719 169.65625 144.863281 169.792969 C 145.042969 169.972656 145.269531 170.152344 145.449219 170.332031 C 145.855469 170.695312 146.214844 171.101562 146.53125 171.554688 C 146.53125 171.554688 146.53125 171.554688 146.53125 171.597656 C 146.574219 171.644531 146.621094 171.6875 146.664062 171.777344 C 146.753906 171.871094 146.84375 172.003906 146.890625 172.09375 C 147.023438 172.320312 147.160156 172.546875 147.296875 172.773438 C 147.566406 173.226562 147.789062 173.722656 148.015625 174.21875 C 147.386719 176.476562 147.160156 178.828125 147.339844 181.222656 C 147.476562 182.9375 147.789062 184.65625 148.285156 186.328125 C 148.0625 186.101562 147.789062 185.921875 147.519531 185.785156 C 146.125 185.105469 144.414062 185.46875 143.015625 185.785156 C 142.160156 186.011719 141.304688 186.28125 140.496094 186.597656 C 140.359375 186.644531 140.40625 186.824219 140.539062 186.871094 C 141.757812 186.914062 142.746094 187.683594 143.738281 188.269531 C 144.234375 188.585938 144.773438 188.855469 145.359375 189.039062 C 145.945312 189.21875 146.53125 189.265625 147.117188 189.265625 C 147.789062 189.21875 148.464844 189.082031 149.097656 188.765625 C 149.140625 188.765625 149.140625 188.722656 149.140625 188.722656 C 149.726562 190.304688 150.449219 191.839844 151.214844 193.332031 C 153.195312 197.035156 155.851562 200.332031 158.375 203.675781 C 159.230469 204.804688 160.128906 205.980469 160.941406 207.199219 C 160.625 207.109375 160.265625 207.019531 159.90625 206.929688 C 158.960938 206.703125 157.96875 206.523438 156.976562 206.386719 C 156.574219 206.34375 156.121094 206.296875 155.671875 206.296875 C 155.402344 206.296875 155.175781 206.34375 154.90625 206.386719 C 154.769531 206.433594 154.589844 206.476562 154.457031 206.523438 C 154.367188 206.433594 154.230469 206.34375 154.09375 206.253906 C 153.871094 206.160156 153.691406 206.070312 153.464844 206.070312 C 153.015625 206.027344 152.5625 206.117188 152.160156 206.433594 C 151.347656 207.066406 151.347656 208.285156 152.070312 208.960938 C 152.746094 209.59375 153.960938 209.414062 154.457031 208.601562 C 154.546875 208.421875 154.636719 208.238281 154.636719 208.015625 C 154.679688 208.015625 154.726562 208.015625 154.769531 207.96875 C 155.355469 207.832031 155.898438 207.789062 156.480469 207.832031 C 157.699219 207.921875 158.867188 208.195312 160.039062 208.511719 C 160.535156 208.648438 161.253906 208.828125 161.707031 209.1875 L 161.707031 211.539062 C 161.707031 214.835938 161.570312 217.59375 161.300781 219.714844 C 160.984375 221.976562 160.21875 223.78125 159.050781 225.09375 C 157.878906 226.402344 156.121094 227.304688 153.914062 227.757812 C 152.023438 228.164062 149.59375 228.34375 146.574219 228.390625 L 146.574219 229.382812 L 190.300781 229.382812 L 190.300781 228.390625 C 187.375 228.34375 184.898438 228.121094 183.007812 227.757812 C 180.753906 227.304688 179 226.402344 177.738281 225.09375 C 177.289062 224.640625 176.882812 224.097656 176.523438 223.464844 C 178.773438 220.753906 180.753906 217.816406 182.015625 214.519531 C 182.242188 214.972656 182.601562 215.332031 182.960938 215.648438 C 183.5 216.101562 184.085938 216.417969 184.671875 216.597656 C 185.4375 216.824219 186.25 216.824219 187.148438 216.6875 C 188.050781 216.554688 188.996094 216.28125 189.898438 216.011719 C 190.976562 215.648438 192.058594 215.199219 192.957031 214.519531 C 193.09375 214.429688 192.957031 214.203125 192.824219 214.25 C 192.101562 214.429688 191.382812 214.25 190.707031 214.023438 C 190.03125 213.753906 189.445312 213.390625 188.816406 213.074219 C 188.183594 212.710938 187.511719 212.398438 186.746094 212.261719 C 185.980469 212.125 185.125 212.125 184.3125 212.351562 C 183.683594 212.53125 183.050781 212.804688 182.511719 213.210938 C 183.097656 211.355469 183.367188 209.414062 183.367188 207.472656 C 183.367188 207.472656 183.367188 207.472656 183.367188 207.425781 C 184.671875 204.761719 188.09375 204.355469 190.390625 202.910156 C 190.390625 202.910156 190.390625 202.910156 190.4375 202.910156 C 191.15625 203.269531 191.921875 203.496094 192.734375 203.496094 C 193.996094 203.542969 195.210938 203.089844 196.203125 202.277344 C 196.695312 201.871094 197.148438 201.328125 197.460938 200.785156 C 197.597656 200.558594 197.730469 200.242188 197.640625 199.972656 C 197.550781 199.746094 197.28125 199.65625 197.058594 199.609375 C 197.550781 198.75 197.914062 197.894531 198.273438 196.988281 C 198.316406 196.898438 198.226562 196.808594 198.09375 196.855469 C 197.417969 197.171875 196.652344 197.351562 195.929688 197.488281 C 195.660156 196.855469 195.03125 196.449219 194.398438 196.355469 C 193.679688 196.265625 192.957031 196.539062 192.328125 196.898438 C 191.203125 197.578125 190.347656 198.707031 189.898438 200.015625 C 189.714844 200.558594 189.582031 201.148438 189.582031 201.6875 C 187.554688 202.953125 184.988281 203.542969 183.277344 205.167969 C 183.050781 203.226562 182.644531 201.328125 182.285156 199.429688 C 182.195312 199.023438 182.152344 198.617188 182.0625 198.210938 C 182.601562 198.570312 183.277344 198.660156 183.90625 198.570312 C 185.304688 198.300781 186.339844 197.125 187.105469 196.042969 C 187.601562 195.410156 188.003906 194.730469 188.367188 194.007812 C 188.410156 193.917969 188.277344 193.828125 188.183594 193.871094 C 187.375 194.550781 186.25 194.640625 185.257812 194.730469 C 184.761719 194.777344 184.222656 194.867188 183.773438 195.046875 C 183.277344 195.226562 182.828125 195.5 182.464844 195.816406 C 182.242188 195.996094 182.015625 196.222656 181.789062 196.492188 C 181.519531 194.640625 181.386719 192.789062 181.65625 190.890625 C 182.285156 190.753906 182.871094 190.574219 183.410156 190.394531 C 184.449219 190.078125 185.394531 189.761719 186.292969 189.355469 C 187.238281 188.949219 188.140625 188.269531 188.90625 187.546875 C 189.671875 186.824219 190.300781 185.964844 190.796875 185.0625 C 190.933594 184.835938 191.023438 184.566406 191.15625 184.339844 L 223.761719 229.429688 L 250.871094 229.429688 L 250.871094 228.300781 C 247.671875 228.027344 244.882812 227.398438 242.539062 226.539062 Z M 139.820312 170.199219 C 139.097656 170.152344 138.425781 170.015625 137.792969 169.792969 C 137.117188 169.519531 136.398438 169.113281 135.949219 168.480469 C 135.496094 167.847656 135.273438 166.898438 135.722656 166.132812 C 136.082031 166.449219 136.398438 166.71875 136.710938 167.035156 C 137.207031 167.488281 137.703125 167.894531 138.242188 168.253906 C 138.109375 168.210938 137.972656 168.164062 137.839844 168.121094 C 137.386719 167.984375 136.984375 167.804688 136.578125 167.53125 C 136.9375 167.847656 137.34375 168.074219 137.792969 168.210938 C 138.152344 168.34375 138.558594 168.527344 138.875 168.660156 C 137.972656 168.4375 137.117188 168.210938 136.21875 167.984375 C 137.253906 168.34375 138.335938 168.660156 139.371094 168.933594 C 139.640625 169.066406 139.910156 169.160156 140.179688 169.25 C 140.945312 169.476562 141.757812 169.476562 142.566406 169.566406 C 142.566406 169.566406 142.566406 169.566406 142.613281 169.566406 C 142.835938 169.609375 143.0625 169.609375 143.289062 169.609375 C 142.117188 170.015625 140.945312 170.242188 139.820312 170.199219 Z M 142.65625 169.25 C 142.613281 169.25 142.613281 169.25 142.65625 169.25 C 141.9375 169.203125 141.214844 169.160156 140.539062 169.023438 C 139.863281 168.886719 139.234375 168.570312 138.648438 168.210938 C 137.476562 167.441406 136.488281 166.449219 135.40625 165.5 C 134.867188 165.046875 134.28125 164.640625 133.695312 164.324219 C 134.730469 163.960938 135.765625 163.691406 136.894531 163.601562 C 137.476562 164.777344 138.515625 165.632812 139.550781 166.355469 C 140.179688 166.808594 140.855469 167.261719 141.488281 167.710938 C 142.160156 168.164062 142.835938 168.617188 143.511719 169.023438 C 143.015625 168.796875 142.566406 168.617188 142.070312 168.4375 C 141.757812 168.300781 141.441406 168.210938 141.171875 168.027344 C 140.855469 167.894531 140.585938 167.710938 140.316406 167.53125 C 140.585938 167.757812 140.855469 167.894531 141.171875 168.074219 C 141.488281 168.210938 141.757812 168.34375 142.070312 168.480469 C 142.566406 168.660156 143.015625 168.886719 143.46875 169.113281 C 142.925781 169.066406 142.433594 168.933594 141.890625 168.796875 C 141.171875 168.570312 140.539062 168.253906 139.957031 167.804688 C 139.683594 167.578125 139.371094 167.304688 139.097656 167.082031 C 138.828125 166.808594 138.558594 166.582031 138.242188 166.3125 C 137.660156 165.816406 137.074219 165.316406 136.441406 164.867188 C 137.074219 165.363281 137.660156 165.859375 138.199219 166.355469 C 138.46875 166.628906 138.738281 166.855469 139.007812 167.125 C 139.28125 167.398438 139.550781 167.667969 139.863281 167.894531 C 140.449219 168.390625 141.125 168.707031 141.847656 168.933594 C 142.386719 169.113281 142.972656 169.203125 143.558594 169.292969 C 143.242188 169.292969 142.925781 169.25 142.65625 169.25 Z M 144.1875 168.300781 C 144.144531 168.34375 144.144531 168.390625 144.097656 168.390625 C 143.917969 167.621094 143.601562 166.898438 143.109375 166.222656 C 142.523438 165.410156 141.710938 164.640625 140.8125 164.054688 C 141.667969 164.6875 142.476562 165.453125 143.0625 166.3125 C 143.46875 166.945312 143.78125 167.621094 143.917969 168.34375 C 142.972656 166.449219 141.214844 164.867188 139.097656 164.144531 C 141.351562 165.003906 143.152344 166.808594 143.964844 168.886719 C 143.964844 168.933594 143.964844 168.933594 143.964844 168.976562 C 142.65625 168.253906 141.441406 167.398438 140.226562 166.539062 C 139.191406 165.816406 138.109375 165.046875 137.386719 164.007812 C 137.207031 163.738281 137.074219 163.464844 136.9375 163.195312 C 136.894531 163.058594 136.757812 162.832031 136.847656 162.699219 C 136.894531 162.5625 137.074219 162.515625 137.207031 162.472656 C 137.570312 162.382812 137.972656 162.382812 138.335938 162.382812 C 138.738281 162.382812 139.144531 162.425781 139.503906 162.515625 C 141.035156 162.878906 142.433594 163.78125 143.242188 165.046875 C 143.964844 165.996094 144.234375 167.171875 144.1875 168.300781 Z M 197.371094 200.152344 C 197.417969 200.242188 197.371094 200.378906 197.328125 200.515625 C 197.238281 200.785156 197.058594 201.054688 196.875 201.28125 C 196.695312 201.554688 196.472656 201.777344 196.246094 201.960938 C 195.390625 202.773438 194.21875 203.316406 193.003906 203.359375 C 192.148438 203.40625 191.292969 203.226562 190.527344 202.816406 C 190.570312 202.773438 190.617188 202.726562 190.617188 202.636719 C 191.113281 202.726562 191.652344 202.773438 192.148438 202.683594 C 193.003906 202.59375 193.8125 202.367188 194.625 202.003906 C 193.8125 202.320312 193.003906 202.546875 192.148438 202.59375 C 191.652344 202.636719 191.113281 202.59375 190.617188 202.503906 C 190.617188 202.457031 190.617188 202.457031 190.617188 202.410156 C 192.417969 202.367188 194.175781 201.734375 195.570312 200.605469 C 194.128906 201.734375 192.375 202.320312 190.617188 202.320312 C 190.617188 202.140625 190.527344 202.003906 190.4375 201.871094 C 191.292969 201.371094 192.191406 200.921875 193.140625 200.558594 C 194.085938 200.152344 195.121094 199.792969 196.15625 199.835938 C 196.425781 199.835938 196.652344 199.882812 196.921875 199.972656 C 197.101562 199.972656 197.328125 200.015625 197.371094 200.152344 Z M 196.246094 197.710938 C 196.785156 197.578125 197.371094 197.441406 197.914062 197.214844 C 197.597656 198.027344 197.238281 198.84375 196.785156 199.609375 C 195.75 199.382812 194.671875 199.699219 193.679688 200.0625 C 193.09375 200.289062 192.464844 200.558594 191.878906 200.832031 C 191.382812 201.054688 190.886719 201.328125 190.390625 201.644531 C 190.390625 201.644531 190.347656 201.644531 190.347656 201.597656 L 191.113281 200.964844 C 191.335938 200.785156 191.5625 200.605469 191.789062 200.46875 C 192.011719 200.332031 192.285156 200.152344 192.507812 200.0625 C 192.238281 200.152344 192.011719 200.289062 191.742188 200.421875 C 191.519531 200.558594 191.292969 200.738281 191.066406 200.921875 L 190.257812 201.554688 C 190.210938 201.554688 190.210938 201.507812 190.167969 201.507812 C 190.390625 201.238281 190.617188 200.921875 190.886719 200.695312 C 191.335938 200.242188 191.878906 199.882812 192.464844 199.699219 C 192.777344 199.609375 193.050781 199.519531 193.363281 199.429688 L 194.265625 199.203125 L 196.109375 198.707031 L 194.265625 199.160156 L 193.320312 199.382812 C 193.003906 199.476562 192.6875 199.519531 192.417969 199.65625 C 191.832031 199.882812 191.246094 200.199219 190.796875 200.648438 C 190.527344 200.921875 190.257812 201.191406 190.03125 201.507812 C 190.03125 201.507812 189.988281 201.507812 189.988281 201.507812 C 190.078125 201.371094 190.121094 201.238281 190.210938 201.148438 C 190.210938 201.148438 190.210938 201.148438 190.210938 201.101562 C 190.527344 200.605469 190.84375 200.0625 191.292969 199.65625 C 191.699219 199.203125 192.238281 198.886719 192.777344 198.617188 C 193.90625 198.210938 195.074219 197.984375 196.246094 197.710938 Z M 190.796875 198.707031 C 191.15625 198.210938 191.609375 197.710938 192.101562 197.351562 C 192.644531 196.945312 193.273438 196.628906 193.996094 196.628906 C 194.671875 196.628906 195.390625 196.945312 195.707031 197.621094 C 195.34375 197.710938 194.941406 197.804688 194.578125 197.894531 C 194.039062 198.027344 193.5 198.164062 193.003906 198.390625 C 193.09375 198.300781 193.183594 198.253906 193.273438 198.164062 C 193.589844 197.9375 193.90625 197.710938 194.308594 197.578125 C 193.90625 197.667969 193.542969 197.894531 193.230469 198.121094 C 192.957031 198.300781 192.644531 198.527344 192.375 198.707031 C 192.957031 198.164062 193.542969 197.621094 194.175781 197.125 C 193.363281 197.710938 192.597656 198.34375 191.878906 198.976562 C 191.699219 199.113281 191.519531 199.25 191.335938 199.382812 C 190.84375 199.882812 190.480469 200.46875 190.078125 201.011719 C 189.988281 201.148438 189.851562 201.328125 189.804688 201.507812 C 189.851562 200.515625 190.210938 199.519531 190.796875 198.707031 Z M 182.242188 214.113281 C 182.917969 214.160156 183.59375 214.339844 184.222656 214.476562 C 184.582031 214.566406 184.898438 214.609375 185.257812 214.699219 C 185.617188 214.746094 185.933594 214.792969 186.292969 214.835938 C 187.691406 214.972656 189.085938 214.882812 190.480469 214.882812 C 189.085938 214.835938 187.644531 214.882812 186.292969 214.746094 C 185.933594 214.699219 185.617188 214.65625 185.257812 214.609375 C 184.898438 214.519531 184.582031 214.476562 184.222656 214.382812 C 183.636719 214.25 183.050781 214.066406 182.375 213.976562 C 184.222656 213.886719 185.980469 213.933594 187.644531 213.527344 C 185.980469 213.84375 184.265625 213.753906 182.421875 213.753906 C 183.546875 212.804688 185.167969 212.441406 186.519531 212.667969 C 188.050781 212.9375 189.175781 213.84375 190.480469 214.382812 C 191.023438 214.609375 191.5625 214.746094 192.148438 214.746094 C 191.519531 215.105469 190.886719 215.421875 190.167969 215.648438 C 189.3125 215.964844 188.410156 216.191406 187.554688 216.371094 C 186.699219 216.554688 185.84375 216.597656 185.078125 216.460938 C 184.449219 216.371094 183.90625 216.101562 183.320312 215.695312 C 182.871094 215.332031 182.464844 214.925781 182.242188 214.429688 C 182.464844 214.476562 182.738281 214.566406 182.960938 214.65625 C 183.277344 214.792969 183.59375 214.925781 183.90625 215.0625 C 184.222656 215.199219 184.492188 215.378906 184.808594 215.515625 C 185.125 215.648438 185.4375 215.738281 185.753906 215.832031 C 185.4375 215.738281 185.125 215.648438 184.851562 215.46875 C 184.539062 215.332031 184.265625 215.152344 183.953125 214.972656 C 183.636719 214.792969 183.367188 214.65625 183.007812 214.519531 C 182.738281 214.382812 182.421875 214.292969 182.152344 214.203125 C 182.195312 214.160156 182.195312 214.160156 182.242188 214.113281 C 182.195312 214.160156 182.242188 214.160156 182.242188 214.113281 Z M 164.992188 137.488281 C 166.660156 135.949219 168.640625 134.957031 170.800781 134.414062 C 172.0625 134.097656 173.371094 133.871094 174.628906 133.738281 C 175.621094 133.648438 176.566406 133.554688 177.558594 133.511719 C 176.339844 134.777344 175.667969 136.3125 174.992188 137.804688 C 174.902344 138.027344 174.765625 138.253906 174.628906 138.4375 C 174.539062 138.570312 174.449219 138.753906 174.359375 138.886719 C 174.179688 139.160156 173.953125 139.429688 173.773438 139.699219 C 173.683594 139.792969 173.59375 139.925781 173.503906 140.015625 C 173.414062 140.105469 173.371094 140.199219 173.28125 140.289062 C 173.28125 140.289062 173.28125 140.289062 173.28125 140.332031 C 173.234375 140.378906 173.234375 140.421875 173.1875 140.421875 C 173.054688 140.558594 172.917969 140.695312 172.785156 140.832031 C 172.648438 140.964844 172.46875 141.148438 172.289062 141.28125 C 172.242188 141.328125 172.199219 141.371094 172.152344 141.371094 C 172.109375 141.417969 172.109375 141.417969 172.0625 141.417969 C 171.929688 141.507812 171.792969 141.644531 171.703125 141.734375 C 171.34375 142.050781 170.984375 142.320312 170.621094 142.503906 C 170.441406 142.546875 170.261719 142.59375 170.082031 142.636719 C 166.976562 143.585938 164.09375 145.574219 162.019531 148.058594 C 162.5625 146.929688 163.191406 145.84375 163.957031 144.804688 C 164.679688 143.855469 165.488281 142.910156 166.390625 142.140625 C 167.289062 141.328125 168.324219 140.605469 169.453125 140.105469 C 168.324219 140.605469 167.246094 141.28125 166.300781 142.050781 C 165.355469 142.816406 164.5 143.722656 163.734375 144.714844 C 162.96875 145.710938 162.292969 146.75 161.707031 147.832031 C 161.4375 148.375 161.164062 148.917969 160.894531 149.460938 C 161.121094 148.738281 161.390625 148.015625 161.707031 147.335938 C 163.597656 143.089844 166.886719 139.113281 171.117188 136.265625 C 167.15625 138.753906 163.867188 142.230469 161.707031 146.117188 C 160.984375 147.425781 160.398438 148.738281 159.90625 150.136719 C 159.996094 147.652344 160.398438 145.121094 161.4375 142.636719 C 161.527344 142.457031 161.570312 142.277344 161.660156 142.09375 C 162.472656 140.378906 163.597656 138.84375 164.992188 137.488281 Z M 174.628906 167.578125 C 173.1875 167.035156 171.792969 166.449219 170.488281 165.726562 C 169.496094 165.183594 168.597656 164.59375 167.785156 163.828125 C 167.335938 163.421875 166.929688 163.015625 166.570312 162.5625 C 168.144531 163.78125 169.992188 164.730469 171.929688 165.273438 C 172.828125 165.542969 173.730469 165.726562 174.628906 165.90625 C 175.035156 165.996094 175.394531 166.085938 175.757812 166.175781 C 177.015625 166.492188 178.277344 166.945312 179.3125 167.710938 C 178.277344 166.898438 177.0625 166.402344 175.800781 166.042969 C 175.394531 165.90625 175.035156 165.816406 174.628906 165.726562 C 173.730469 165.5 172.875 165.273438 172.019531 165.003906 C 170.261719 164.460938 168.640625 163.601562 167.246094 162.472656 C 169.675781 163.375 172.109375 164.1875 174.675781 164.503906 C 174.945312 164.550781 175.171875 164.550781 175.441406 164.59375 C 176.566406 164.6875 177.738281 164.640625 178.863281 164.503906 C 178.910156 164.550781 178.910156 164.550781 178.953125 164.59375 C 181.160156 165.769531 182.285156 167.984375 183.410156 170.152344 C 180.753906 170.785156 177.964844 171.644531 175.125 171.28125 C 174.992188 171.28125 174.8125 171.238281 174.675781 171.191406 C 171.839844 170.648438 169.542969 168.660156 167.921875 166.3125 C 166.929688 164.910156 166.164062 163.421875 165.488281 161.882812 C 166.074219 162.742188 166.792969 163.511719 167.558594 164.144531 C 168.414062 164.867188 169.40625 165.453125 170.398438 165.949219 C 171.792969 166.628906 173.234375 167.171875 174.675781 167.621094 C 175.351562 167.847656 175.980469 168.074219 176.65625 168.300781 C 175.9375 168.074219 175.304688 167.847656 174.628906 167.578125 Z M 174.628906 163.78125 C 173.234375 163.601562 171.882812 163.285156 170.53125 162.878906 C 169.765625 162.652344 169.046875 162.382812 168.28125 162.109375 C 170.398438 162.292969 172.515625 162.199219 174.628906 161.929688 C 177.871094 161.476562 181.023438 160.527344 183.90625 159.128906 C 180.980469 160.4375 177.828125 161.207031 174.628906 161.523438 C 172.828125 161.703125 171.027344 161.703125 169.226562 161.523438 C 170.894531 161.476562 172.558594 161.34375 174.179688 160.980469 C 174.316406 160.9375 174.496094 160.9375 174.628906 160.890625 C 175.53125 160.664062 176.476562 160.394531 177.332031 160.03125 C 178.324219 159.625 179.3125 159.039062 180.125 158.40625 C 179.269531 159.039062 178.277344 159.535156 177.289062 159.941406 C 176.433594 160.257812 175.53125 160.527344 174.628906 160.664062 C 174.496094 160.710938 174.316406 160.710938 174.136719 160.753906 C 172.785156 160.980469 171.476562 161.070312 170.082031 161.070312 C 170.082031 161.070312 170.082031 161.070312 170.128906 161.070312 C 170.21875 161.027344 170.351562 161.027344 170.441406 160.980469 C 170.578125 160.9375 170.710938 160.9375 170.800781 160.890625 C 171.027344 160.84375 171.253906 160.753906 171.476562 160.664062 C 171.703125 160.574219 171.882812 160.527344 172.109375 160.4375 C 172.425781 160.304688 172.785156 160.167969 173.097656 160.03125 C 173.234375 159.988281 173.414062 159.898438 173.550781 159.804688 C 173.910156 159.625 174.269531 159.445312 174.585938 159.265625 C 175.621094 158.675781 176.566406 157.953125 177.46875 157.140625 L 177.558594 157.050781 C 177.738281 156.871094 177.917969 156.6875 178.097656 156.507812 C 179.089844 155.695312 180.484375 155.332031 181.699219 155.105469 C 182.421875 155.015625 183.1875 154.972656 183.90625 155.105469 C 184.808594 155.289062 185.707031 155.515625 186.609375 155.648438 C 187.328125 155.785156 188.050781 155.832031 188.769531 155.738281 C 187.78125 157.1875 186.746094 158.585938 185.617188 159.851562 C 184.359375 161.296875 182.960938 162.472656 181.160156 163.148438 C 179.042969 163.917969 176.835938 164.054688 174.628906 163.78125 Z M 185.753906 154.65625 C 185.753906 154.65625 185.753906 154.699219 185.753906 154.65625 C 185.167969 154.519531 184.582031 154.382812 183.953125 154.292969 C 182.644531 154.066406 181.25 154.292969 179.945312 154.699219 C 181.070312 153.753906 182.285156 152.984375 183.59375 152.351562 C 182.332031 152.847656 181.113281 153.527344 179.988281 154.382812 C 180.800781 153.074219 182.015625 151.898438 183.457031 151.222656 C 182.332031 151.71875 181.296875 152.441406 180.484375 153.390625 C 180.800781 152.847656 181.113281 152.304688 181.339844 151.765625 C 181.609375 151.132812 181.835938 150.542969 182.015625 149.867188 C 182.0625 149.867188 182.105469 149.820312 182.152344 149.777344 C 182.78125 149.054688 183.90625 149.371094 184.671875 149.503906 C 185.347656 149.640625 186.070312 149.730469 186.746094 149.867188 C 186.292969 150.363281 186.070312 151.085938 185.980469 151.71875 C 185.980469 152.667969 186.203125 153.753906 185.753906 154.65625 Z M 181.207031 150.226562 C 180.484375 152.304688 179.222656 154.25 177.691406 155.875 C 177.46875 156.054688 177.242188 156.28125 177.015625 156.507812 C 177.015625 156.507812 177.015625 156.554688 176.972656 156.554688 C 176.25 157.230469 175.441406 157.816406 174.628906 158.316406 C 174.539062 158.359375 174.449219 158.40625 174.359375 158.449219 C 174.089844 158.585938 173.863281 158.722656 173.59375 158.855469 C 173.324219 158.992188 173.054688 159.128906 172.828125 159.21875 C 172.648438 159.308594 172.46875 159.398438 172.289062 159.445312 C 172.199219 159.488281 172.0625 159.535156 171.972656 159.582031 C 171.882812 159.625 171.75 159.671875 171.660156 159.714844 C 171.476562 159.804688 171.296875 159.851562 171.117188 159.898438 C 171.074219 159.898438 171.027344 159.941406 170.9375 159.941406 C 170.800781 159.988281 170.621094 160.03125 170.441406 160.078125 C 170.398438 160.078125 170.351562 160.121094 170.351562 160.121094 C 170.308594 160.121094 170.261719 160.167969 170.21875 160.167969 C 169.992188 160.210938 169.722656 160.304688 169.496094 160.347656 C 169.273438 160.394531 169.046875 160.4375 168.820312 160.484375 C 168.730469 160.484375 168.640625 160.527344 168.550781 160.527344 C 168.371094 160.574219 168.144531 160.574219 167.964844 160.621094 C 167.742188 160.664062 167.558594 160.664062 167.335938 160.664062 C 167.246094 160.664062 167.109375 160.664062 166.976562 160.664062 C 166.886719 160.664062 166.839844 160.664062 166.75 160.664062 C 166.253906 160.664062 165.804688 160.664062 165.308594 160.621094 C 164.8125 160.574219 164.226562 160.574219 163.734375 160.394531 C 163.417969 160.304688 163.148438 160.121094 162.875 159.988281 C 162.515625 159.804688 162.113281 159.582031 161.75 159.398438 C 161.570312 159.308594 161.390625 159.21875 161.253906 159.128906 C 161.4375 159.039062 161.570312 158.949219 161.75 158.902344 C 161.839844 158.855469 161.886719 158.855469 161.976562 158.8125 C 162.515625 158.632812 163.101562 158.542969 163.640625 158.449219 C 164.769531 158.269531 165.9375 158.179688 167.066406 158 C 169.363281 157.59375 171.523438 156.554688 173.324219 155.105469 C 171.476562 156.507812 169.273438 157.410156 167.019531 157.726562 C 165.894531 157.910156 164.769531 157.910156 163.597656 158.042969 C 163.011719 158.089844 162.425781 158.179688 161.839844 158.359375 C 161.796875 158.359375 161.75 158.40625 161.707031 158.40625 C 161.617188 158.40625 161.527344 158.449219 161.480469 158.496094 C 161.570312 158.40625 161.617188 158.316406 161.707031 158.269531 C 162.335938 157.683594 162.96875 157.09375 163.6875 156.597656 C 164.859375 155.738281 166.074219 155.015625 167.335938 154.292969 C 168.597656 153.617188 169.902344 152.894531 171.164062 152.214844 C 172.332031 151.582031 173.503906 150.859375 174.628906 150.09375 C 174.71875 150.046875 174.8125 150.003906 174.902344 149.910156 C 174.8125 149.957031 174.71875 150.003906 174.628906 150.046875 C 173.503906 150.769531 172.289062 151.402344 171.074219 151.988281 C 169.765625 152.621094 168.460938 153.253906 167.15625 153.886719 C 165.847656 154.566406 164.589844 155.242188 163.328125 156.101562 C 162.785156 156.460938 162.203125 156.914062 161.707031 157.320312 C 161.570312 157.457031 161.390625 157.59375 161.253906 157.726562 C 161.390625 157.503906 161.570312 157.320312 161.707031 157.09375 C 162.246094 156.417969 162.875 155.738281 163.507812 155.105469 C 164.769531 153.886719 166.121094 152.847656 167.558594 151.855469 C 169.8125 150.316406 172.242188 149.054688 174.585938 147.652344 C 175.261719 147.292969 175.890625 146.882812 176.523438 146.476562 C 175.890625 146.839844 175.214844 147.199219 174.585938 147.5625 C 172.199219 148.871094 169.722656 150.136719 167.425781 151.628906 C 165.9375 152.578125 164.5 153.617188 163.238281 154.792969 C 162.695312 155.289062 162.203125 155.832031 161.707031 156.371094 C 161.164062 157.003906 160.625 157.636719 160.175781 158.359375 C 160.175781 158.269531 160.128906 158.132812 160.128906 158.042969 C 160.398438 156.507812 160.894531 154.972656 161.660156 153.480469 C 161.660156 153.4375 161.707031 153.4375 161.707031 153.390625 C 162.5625 151.671875 163.824219 150.046875 165.488281 148.871094 C 163.914062 149.910156 162.652344 151.3125 161.707031 152.894531 C 161.617188 153.027344 161.527344 153.210938 161.4375 153.390625 C 160.804688 154.519531 160.355469 155.648438 159.996094 156.824219 C 159.949219 156.554688 159.90625 156.238281 159.90625 155.964844 C 159.816406 154.882812 159.949219 153.84375 160.308594 152.757812 C 160.625 151.71875 161.121094 150.726562 161.75 149.777344 C 161.75 149.730469 161.796875 149.6875 161.839844 149.6875 C 161.929688 149.550781 162.019531 149.414062 162.15625 149.234375 C 162.292969 149.007812 162.472656 148.828125 162.605469 148.648438 C 162.652344 148.601562 162.695312 148.511719 162.742188 148.464844 C 162.921875 148.238281 163.101562 148.058594 163.28125 147.832031 C 163.460938 147.605469 163.640625 147.425781 163.867188 147.246094 C 164.003906 147.109375 164.183594 146.929688 164.363281 146.792969 C 164.5 146.660156 164.679688 146.523438 164.859375 146.386719 C 164.949219 146.296875 165.039062 146.207031 165.171875 146.117188 C 165.261719 146.027344 165.355469 145.980469 165.445312 145.890625 C 165.535156 145.800781 165.625 145.753906 165.757812 145.664062 C 166.703125 145.03125 167.648438 144.398438 168.730469 143.992188 C 169.496094 143.722656 170.21875 143.632812 170.9375 143.226562 C 172.199219 142.910156 173.460938 142.726562 174.675781 142.726562 C 175.304688 142.726562 175.980469 142.773438 176.613281 142.863281 C 178.910156 143.226562 180.933594 144.265625 183.1875 144.535156 C 182.195312 146.386719 181.878906 148.375 181.207031 150.226562 Z M 178.414062 142.457031 C 178.367188 142.457031 178.367188 142.457031 178.414062 142.457031 C 177.964844 142.367188 177.558594 142.277344 177.152344 142.1875 C 176.339844 142.050781 175.53125 141.960938 174.71875 141.960938 C 175.847656 141.6875 176.925781 141.191406 177.917969 140.605469 C 176.882812 141.191406 175.757812 141.597656 174.628906 141.824219 C 174.089844 141.914062 173.550781 142.003906 173.054688 142.003906 C 173.59375 141.777344 174.136719 141.507812 174.628906 141.238281 C 175.441406 140.832031 176.25 140.332031 176.972656 139.835938 C 176.207031 140.289062 175.394531 140.738281 174.628906 141.101562 C 174 141.417969 173.371094 141.644531 172.738281 141.914062 C 173.144531 141.554688 173.503906 141.191406 173.820312 140.875 C 174.089844 140.558594 174.359375 140.242188 174.628906 139.925781 C 174.902344 139.566406 175.171875 139.203125 175.394531 138.796875 C 175.757812 138.121094 176.070312 137.441406 176.386719 136.765625 C 177.511719 136.855469 178.277344 137.667969 179.179688 138.121094 C 179.808594 138.4375 180.53125 138.617188 181.296875 138.527344 C 180.933594 139.160156 180.574219 139.835938 180.257812 140.46875 C 179.808594 141.191406 179.449219 142.320312 178.414062 142.457031 Z M 153.601562 140.964844 C 154.050781 139.382812 154.949219 137.894531 155.988281 136.492188 C 157.15625 134.957031 158.554688 133.464844 159.949219 132.066406 C 160.398438 132.652344 160.851562 133.238281 161.253906 133.871094 C 162.15625 135.273438 162.832031 136.808594 162.742188 138.617188 C 162.742188 138.660156 162.742188 138.707031 162.742188 138.753906 C 162.335938 139.25 161.976562 139.792969 161.660156 140.332031 C 160.355469 142.546875 159.632812 144.988281 159.273438 147.335938 C 159.09375 148.554688 159.050781 149.777344 159.003906 150.949219 C 158.464844 149.234375 158.285156 147.335938 158.554688 145.394531 C 158.734375 143.992188 159.140625 142.59375 159.453125 141.191406 C 159.769531 139.792969 159.949219 138.34375 159.769531 137.035156 C 159.90625 138.390625 159.679688 139.792969 159.320312 141.191406 C 158.960938 142.59375 158.554688 143.992188 158.285156 145.394531 C 157.921875 147.515625 158.058594 149.640625 158.6875 151.539062 C 158.375 151.042969 158.148438 150.542969 157.921875 150.003906 C 157.519531 148.960938 157.292969 147.878906 157.203125 146.703125 C 156.976562 144.398438 157.292969 142.003906 157.652344 139.609375 C 157.203125 142.003906 156.796875 144.398438 156.933594 146.75 C 156.976562 147.921875 157.203125 149.054688 157.5625 150.136719 C 157.878906 151.132812 158.375 152.082031 159.050781 152.894531 C 159.050781 152.894531 159.050781 152.894531 159.003906 152.847656 C 156.753906 150.769531 154.546875 148.554688 153.644531 145.527344 C 153.238281 144.171875 153.148438 142.59375 153.601562 140.964844 Z M 150.402344 143.449219 C 150.671875 142.140625 151.304688 140.832031 152.25 139.699219 L 152.789062 140.832031 C 151.800781 144.21875 152.96875 147.335938 154.769531 149.777344 C 155.988281 151.355469 157.429688 152.710938 158.914062 154.066406 C 155.222656 152.621094 152.292969 149.59375 151.4375 145.664062 C 152.160156 149.777344 155.132812 153.121094 159.050781 154.699219 C 159.050781 154.792969 159.050781 154.882812 159.050781 154.925781 C 156.4375 154.699219 154.320312 153.164062 152.746094 151.3125 C 150.988281 149.234375 149.773438 146.523438 150.402344 143.449219 Z M 154.546875 156.6875 C 153.328125 155.332031 152.609375 153.617188 152.070312 151.855469 C 152.835938 152.757812 153.734375 153.617188 154.769531 154.292969 C 156.03125 155.105469 157.472656 155.648438 159.003906 155.738281 C 159.003906 156.238281 159.09375 156.6875 159.140625 157.1875 C 157.699219 157.09375 156.300781 156.507812 155.355469 155.515625 C 156.300781 156.597656 157.652344 157.277344 159.183594 157.410156 C 159.273438 157.863281 159.320312 158.359375 159.410156 158.8125 C 159.410156 158.8125 159.410156 158.855469 159.410156 158.855469 C 157.472656 158.992188 155.714844 158 154.546875 156.6875 Z M 151.574219 164.414062 C 151.125 163.828125 150.941406 163.105469 150.671875 162.472656 C 150.582031 162.199219 150.449219 161.976562 150.269531 161.75 C 150.582031 161.882812 150.898438 162.019531 151.214844 162.15625 C 151.617188 162.335938 151.980469 162.515625 152.382812 162.742188 C 152.746094 162.96875 153.105469 163.195312 153.375 163.554688 C 153.601562 163.828125 153.691406 164.144531 153.734375 164.503906 C 153.734375 164.503906 153.734375 164.503906 153.734375 164.550781 C 153.644531 164.6875 153.554688 164.777344 153.421875 164.910156 C 153.375 164.777344 153.328125 164.640625 153.285156 164.503906 C 153.238281 164.324219 153.195312 164.1875 153.105469 164.007812 C 153.058594 163.917969 153.015625 163.871094 152.96875 163.828125 C 153.015625 163.917969 153.015625 163.960938 153.058594 164.054688 C 153.105469 164.1875 153.148438 164.371094 153.195312 164.550781 C 153.238281 164.6875 153.285156 164.867188 153.285156 165.003906 C 153.238281 165.046875 153.238281 165.09375 153.195312 165.09375 C 153.105469 164.910156 153.015625 164.777344 152.925781 164.640625 C 152.835938 164.503906 152.746094 164.371094 152.65625 164.1875 C 152.5625 164.054688 152.429688 163.917969 152.292969 163.78125 C 151.800781 163.285156 151.257812 162.878906 150.761719 162.382812 C 151.214844 162.878906 151.800781 163.285156 152.25 163.78125 C 152.382812 163.917969 152.472656 164.054688 152.5625 164.1875 C 152.65625 164.324219 152.746094 164.460938 152.835938 164.640625 C 152.925781 164.820312 153.015625 164.957031 153.105469 165.136719 C 153.105469 165.136719 153.058594 165.183594 153.058594 165.183594 C 152.5625 164.59375 152.023438 164.144531 151.347656 163.78125 C 151.980469 164.144531 152.5625 164.640625 153.015625 165.226562 C 152.96875 165.273438 152.925781 165.316406 152.925781 165.363281 C 152.429688 165.183594 151.933594 164.867188 151.574219 164.414062 Z M 152.070312 169.113281 C 152.160156 169.203125 152.292969 169.339844 152.382812 169.429688 C 152.609375 169.699219 152.789062 169.925781 152.96875 170.199219 C 153.148438 170.46875 153.328125 170.738281 153.554688 170.964844 C 153.78125 171.191406 154.003906 171.417969 154.277344 171.644531 C 154.003906 171.460938 153.78125 171.191406 153.601562 170.964844 C 153.421875 170.695312 153.238281 170.421875 153.058594 170.152344 C 152.878906 169.882812 152.746094 169.609375 152.519531 169.339844 C 152.429688 169.203125 152.292969 169.066406 152.203125 168.933594 C 152.25 168.886719 152.25 168.84375 152.292969 168.84375 C 152.746094 169.160156 153.105469 169.519531 153.464844 169.835938 C 153.691406 170.0625 153.960938 170.289062 154.230469 170.46875 C 154.5 170.648438 154.769531 170.832031 155.085938 170.964844 C 156.257812 171.597656 157.519531 171.960938 158.6875 172.503906 C 157.519531 171.914062 156.300781 171.507812 155.132812 170.875 C 154.859375 170.695312 154.589844 170.558594 154.320312 170.332031 C 154.050781 170.152344 153.824219 169.925781 153.601562 169.699219 C 153.238281 169.382812 152.878906 168.976562 152.429688 168.660156 C 152.429688 168.660156 152.429688 168.660156 152.429688 168.617188 C 153.148438 168.976562 153.734375 169.339844 154.367188 169.609375 C 155.132812 169.925781 155.941406 170.199219 156.753906 170.289062 C 155.941406 170.152344 155.175781 169.882812 154.410156 169.519531 C 153.824219 169.25 153.238281 168.84375 152.519531 168.480469 C 152.5625 168.4375 152.5625 168.390625 152.609375 168.390625 C 153.148438 168.34375 153.734375 168.390625 154.1875 168.480469 C 154.859375 168.617188 155.492188 168.886719 156.078125 169.25 C 157.203125 169.972656 157.96875 171.148438 158.867188 172.140625 C 159.230469 172.546875 159.632812 172.910156 160.085938 173.179688 C 159.453125 173.179688 158.777344 173.132812 158.148438 173.089844 C 157.335938 173.042969 156.480469 172.953125 155.671875 172.773438 C 154.859375 172.636719 154.050781 172.367188 153.375 171.871094 C 152.835938 171.460938 152.472656 171.011719 152.25 170.421875 C 152.113281 170.0625 151.980469 169.699219 151.933594 169.339844 C 151.980469 169.292969 152.023438 169.203125 152.070312 169.113281 Z M 148.871094 188.316406 L 148.421875 187.910156 C 148.195312 187.726562 148.015625 187.503906 147.789062 187.320312 C 147.566406 187.140625 147.339844 186.960938 147.117188 186.777344 C 146.890625 186.644531 146.621094 186.507812 146.351562 186.417969 C 146.621094 186.507812 146.84375 186.6875 147.117188 186.824219 C 147.339844 187.003906 147.566406 187.1875 147.746094 187.367188 C 147.925781 187.546875 148.152344 187.773438 148.332031 187.953125 L 148.828125 188.496094 C 148.828125 188.496094 148.828125 188.542969 148.828125 188.542969 C 148.375 188.269531 147.925781 187.953125 147.476562 187.726562 C 147.207031 187.59375 146.933594 187.503906 146.664062 187.367188 C 146.394531 187.277344 146.125 187.1875 145.808594 187.140625 C 144.683594 186.914062 143.511719 186.960938 142.386719 186.824219 C 143.511719 186.960938 144.683594 186.960938 145.808594 187.230469 C 146.078125 187.277344 146.351562 187.367188 146.621094 187.457031 C 146.890625 187.546875 147.160156 187.683594 147.386719 187.816406 C 147.789062 188.042969 148.195312 188.316406 148.601562 188.585938 C 147.339844 188.042969 145.945312 187.910156 144.59375 188.089844 C 145.945312 187.910156 147.296875 188.132812 148.511719 188.722656 C 147.519531 189.082031 146.441406 189.128906 145.402344 188.855469 C 144.277344 188.542969 143.378906 187.726562 142.296875 187.1875 C 141.890625 186.960938 141.441406 186.777344 140.992188 186.6875 C 141.53125 186.507812 142.070312 186.328125 142.613281 186.191406 C 143.332031 186.011719 144.054688 185.832031 144.773438 185.738281 C 145.496094 185.648438 146.261719 185.695312 146.933594 185.921875 C 147.476562 186.101562 147.972656 186.460938 148.332031 186.914062 C 148.332031 186.914062 148.332031 186.960938 148.375 186.960938 C 148.601562 187.457031 148.738281 187.863281 148.871094 188.316406 Z M 149.367188 184.429688 L 149.457031 184.429688 C 149.636719 184.382812 149.863281 184.339844 150.042969 184.339844 C 150.222656 184.292969 150.449219 184.25 150.628906 184.203125 C 150.808594 184.160156 150.988281 184.066406 151.167969 183.933594 C 150.988281 184.023438 150.808594 184.113281 150.628906 184.160156 C 150.449219 184.203125 150.269531 184.25 150.042969 184.292969 C 149.863281 184.339844 149.636719 184.339844 149.457031 184.382812 L 149.320312 184.382812 C 149.320312 184.339844 149.320312 184.292969 149.277344 184.25 C 149.503906 184.160156 149.726562 184.066406 149.90625 183.976562 C 150.085938 183.886719 150.269531 183.796875 150.449219 183.707031 C 150.628906 183.617188 150.761719 183.480469 150.941406 183.34375 C 151.527344 182.847656 152.023438 182.214844 152.609375 181.671875 C 152.023438 182.214844 151.527344 182.804688 150.898438 183.300781 C 150.761719 183.4375 150.582031 183.527344 150.402344 183.660156 C 150.222656 183.753906 150.042969 183.84375 149.90625 183.933594 C 149.726562 184.023438 149.503906 184.113281 149.277344 184.203125 C 149.277344 184.160156 149.277344 184.160156 149.277344 184.113281 C 149.953125 183.617188 150.539062 183.027344 150.941406 182.304688 C 150.492188 182.984375 149.90625 183.570312 149.230469 184.023438 C 149.1875 183.886719 149.1875 183.753906 149.140625 183.617188 C 149.367188 183.164062 149.726562 182.710938 150.175781 182.441406 C 150.851562 181.945312 151.664062 181.808594 152.429688 181.539062 C 152.746094 181.402344 153.015625 181.265625 153.285156 181.085938 C 153.148438 181.449219 152.96875 181.808594 152.835938 182.171875 C 152.609375 182.621094 152.382812 183.074219 152.113281 183.480469 C 151.84375 183.886719 151.527344 184.292969 151.125 184.566406 C 150.808594 184.792969 150.402344 184.882812 149.996094 184.882812 C 149.816406 184.882812 149.636719 184.835938 149.457031 184.792969 C 149.410156 184.609375 149.410156 184.519531 149.367188 184.429688 Z M 161.707031 205.84375 C 159.453125 202.636719 156.976562 199.65625 154.726562 196.449219 C 154.320312 195.859375 154.546875 195.046875 154.679688 194.414062 C 154.816406 193.648438 155.085938 192.921875 155.355469 192.199219 C 155.941406 190.753906 156.617188 189.308594 156.976562 187.773438 C 157.113281 187.1875 157.15625 186.554688 157.15625 185.964844 C 157.15625 185.785156 157.066406 185.378906 157.203125 185.199219 C 157.335938 185.0625 157.609375 185.0625 157.742188 185.015625 C 157.921875 184.925781 158.101562 184.792969 158.238281 184.609375 C 158.507812 184.25 158.597656 183.753906 158.507812 183.34375 C 158.328125 182.53125 157.652344 181.898438 156.84375 181.765625 C 155.222656 181.492188 154.09375 183.480469 154.996094 184.835938 C 155.222656 185.152344 155.625 185.289062 155.714844 185.648438 C 155.808594 186.101562 155.671875 186.6875 155.582031 187.09375 C 155.402344 188 155.085938 188.902344 154.726562 189.761719 C 154.140625 191.207031 153.511719 192.605469 153.195312 194.054688 C 151.574219 191.253906 150.222656 188.132812 149.457031 184.972656 C 149.953125 185.105469 150.492188 185.0625 150.941406 184.835938 C 151.890625 184.382812 152.429688 183.34375 152.835938 182.441406 C 153.105469 181.898438 153.328125 181.355469 153.554688 180.769531 C 153.601562 180.679688 153.464844 180.632812 153.421875 180.679688 C 152.835938 181.265625 151.980469 181.449219 151.214844 181.71875 C 150.808594 181.855469 150.449219 182.035156 150.085938 182.261719 C 149.726562 182.488281 149.457031 182.804688 149.1875 183.121094 C 149.140625 183.164062 149.097656 183.253906 149.050781 183.34375 C 148.421875 179.414062 148.738281 175.394531 150.582031 171.644531 C 150.898438 171.011719 151.214844 170.421875 151.574219 169.835938 C 151.617188 170.0625 151.707031 170.242188 151.753906 170.421875 C 151.980469 171.011719 152.25 171.554688 152.699219 171.960938 C 154.003906 173.132812 155.898438 173.316406 157.519531 173.449219 C 158.507812 173.542969 159.5 173.585938 160.535156 173.542969 C 160.671875 173.542969 160.714844 173.316406 160.582031 173.269531 C 159.320312 172.726562 158.507812 171.554688 157.652344 170.515625 C 157.203125 169.972656 156.707031 169.476562 156.167969 169.113281 C 155.582031 168.707031 154.949219 168.4375 154.277344 168.300781 C 153.824219 168.164062 153.238281 168.121094 152.65625 168.121094 C 154.457031 165.632812 156.574219 163.464844 158.734375 161.34375 C 158.734375 162.292969 158.914062 163.195312 159.273438 164.007812 C 159.769531 165.226562 160.582031 166.3125 161.570312 167.214844 L 161.570312 205.84375 Z M 161.707031 165.996094 C 161.390625 165.679688 161.121094 165.316406 160.851562 164.910156 C 159.90625 163.464844 159.363281 161.613281 159.859375 159.804688 C 159.996094 159.804688 160.175781 159.714844 160.21875 159.535156 C 160.582031 159.714844 160.941406 159.941406 161.300781 160.121094 C 161.03125 161.34375 161.210938 162.605469 161.660156 163.691406 C 161.796875 163.960938 161.929688 164.1875 162.066406 164.460938 C 161.886719 164.1875 161.75 163.871094 161.660156 163.554688 C 161.300781 162.515625 161.253906 161.386719 161.527344 160.257812 C 161.570312 160.304688 161.617188 160.304688 161.660156 160.347656 C 161.796875 160.4375 161.976562 160.484375 162.113281 160.574219 C 162.335938 160.710938 162.5625 160.800781 162.832031 160.9375 C 162.15625 163.738281 163.238281 166.402344 164.769531 168.570312 C 163.6875 167.804688 162.605469 166.988281 161.707031 165.996094 Z M 168.820312 171.597656 C 167.605469 170.785156 166.613281 169.746094 165.757812 168.570312 C 164.992188 167.53125 164.363281 166.402344 163.914062 165.136719 C 163.460938 163.871094 163.328125 162.5625 163.597656 161.207031 C 163.6875 161.207031 163.734375 161.253906 163.824219 161.253906 C 164.226562 165.453125 166.75 169.113281 170.171875 171.191406 C 166.929688 169.066406 164.679688 165.5 164.363281 161.566406 C 164.453125 161.75 164.542969 161.976562 164.632812 162.15625 C 164.722656 162.335938 164.8125 162.5625 164.902344 162.742188 C 164.992188 162.96875 165.128906 163.195312 165.21875 163.421875 C 165.445312 163.871094 165.667969 164.324219 165.9375 164.777344 C 165.984375 164.867188 166.027344 164.957031 166.074219 165.046875 C 166.164062 165.226562 166.300781 165.453125 166.433594 165.632812 C 166.433594 165.679688 166.480469 165.679688 166.480469 165.726562 C 166.570312 165.90625 166.703125 166.042969 166.792969 166.222656 C 166.976562 166.492188 167.15625 166.71875 167.335938 166.988281 C 167.46875 167.171875 167.558594 167.304688 167.695312 167.488281 C 167.742188 167.578125 167.832031 167.667969 167.921875 167.757812 C 168.054688 167.9375 168.191406 168.074219 168.324219 168.253906 C 168.550781 168.527344 168.777344 168.753906 169 168.976562 C 169.089844 169.066406 169.179688 169.160156 169.273438 169.203125 C 169.273438 169.203125 169.316406 169.25 169.316406 169.25 C 169.453125 169.382812 169.585938 169.476562 169.722656 169.609375 C 169.902344 169.746094 170.082031 169.882812 170.261719 170.015625 C 171.476562 170.964844 172.917969 171.6875 174.449219 171.960938 C 174.496094 171.960938 174.585938 172.003906 174.628906 172.003906 L 174.71875 172.09375 L 175.484375 172.953125 C 175.214844 173.042969 174.992188 173.089844 174.71875 173.132812 C 172.605469 173.359375 170.488281 172.773438 168.820312 171.597656 Z M 181.699219 209.820312 L 181.65625 209.777344 C 181.519531 209.59375 181.386719 209.460938 181.296875 209.277344 C 181.160156 209.144531 181.023438 208.960938 180.890625 208.828125 C 180.753906 208.691406 180.574219 208.554688 180.441406 208.464844 C 180.621094 208.601562 180.753906 208.738281 180.890625 208.871094 C 181.023438 209.007812 181.160156 209.1875 181.25 209.371094 C 181.386719 209.550781 181.476562 209.6875 181.609375 209.867188 L 181.699219 210.003906 C 181.699219 210.046875 181.699219 210.09375 181.699219 210.136719 C 181.476562 209.957031 181.25 209.777344 181.023438 209.59375 C 180.84375 209.460938 180.710938 209.371094 180.53125 209.234375 C 180.351562 209.144531 180.167969 209.007812 179.988281 208.917969 C 179.269531 208.554688 178.457031 208.332031 177.738281 207.921875 C 178.457031 208.332031 179.222656 208.601562 179.945312 208.960938 C 180.125 209.054688 180.304688 209.144531 180.484375 209.277344 C 180.664062 209.371094 180.800781 209.503906 180.980469 209.640625 C 181.207031 209.820312 181.476562 210.046875 181.699219 210.273438 C 181.699219 210.273438 181.699219 210.316406 181.699219 210.316406 C 180.84375 209.820312 179.898438 209.503906 178.953125 209.371094 C 179.945312 209.550781 180.84375 209.910156 181.65625 210.453125 C 180.890625 210.589844 180.078125 210.453125 179.359375 210.046875 C 178.59375 209.59375 178.097656 208.828125 177.558594 208.195312 C 177.332031 207.921875 177.105469 207.699219 176.835938 207.472656 C 177.289062 207.515625 177.691406 207.5625 178.054688 207.605469 C 178.546875 207.652344 179.042969 207.699219 179.539062 207.789062 C 180.035156 207.878906 180.53125 208.015625 180.933594 208.285156 C 181.296875 208.511719 181.566406 208.78125 181.746094 209.144531 C 181.746094 209.144531 181.746094 209.1875 181.746094 209.1875 C 181.746094 209.414062 181.746094 209.59375 181.699219 209.820312 Z M 183.726562 195.363281 C 184.671875 195.003906 185.707031 195.046875 186.746094 194.777344 C 187.148438 194.6875 187.554688 194.550781 187.914062 194.371094 C 187.691406 194.820312 187.417969 195.273438 187.105469 195.679688 C 186.746094 196.222656 186.292969 196.765625 185.84375 197.214844 C 185.394531 197.667969 184.808594 198.074219 184.175781 198.300781 C 183.683594 198.480469 183.140625 198.480469 182.644531 198.300781 C 182.421875 198.210938 182.195312 198.074219 181.972656 197.9375 C 181.972656 197.847656 181.925781 197.710938 181.925781 197.621094 L 182.195312 197.667969 C 182.464844 197.710938 182.691406 197.710938 182.960938 197.757812 C 183.230469 197.804688 183.457031 197.804688 183.726562 197.804688 C 183.996094 197.804688 184.222656 197.757812 184.492188 197.667969 C 184.265625 197.757812 183.996094 197.757812 183.726562 197.757812 C 183.457031 197.757812 183.230469 197.710938 182.960938 197.710938 C 182.691406 197.667969 182.464844 197.621094 182.242188 197.578125 L 181.925781 197.53125 C 181.925781 197.488281 181.925781 197.441406 181.925781 197.441406 C 182.285156 197.441406 182.644531 197.398438 183.007812 197.351562 C 183.277344 197.304688 183.5 197.261719 183.773438 197.171875 C 183.996094 197.082031 184.265625 196.988281 184.492188 196.898438 C 185.394531 196.449219 186.203125 195.769531 187.015625 195.183594 C 186.160156 195.726562 185.347656 196.402344 184.449219 196.808594 C 184.222656 196.898438 183.996094 196.988281 183.726562 197.082031 C 183.5 197.171875 183.230469 197.214844 183.007812 197.214844 C 182.644531 197.261719 182.285156 197.261719 181.925781 197.261719 C 181.925781 197.261719 181.925781 197.214844 181.925781 197.214844 C 183.007812 196.945312 184.042969 196.355469 184.808594 195.5 C 184.042969 196.3125 183.007812 196.855469 181.925781 197.082031 C 181.925781 197.035156 181.925781 196.988281 181.878906 196.898438 C 182.242188 196.222656 182.917969 195.679688 183.726562 195.363281 Z M 181.699219 205.4375 C 181.835938 206.566406 181.835938 207.699219 181.789062 208.828125 C 181.65625 208.601562 181.476562 208.375 181.25 208.238281 C 180.441406 207.605469 179.3125 207.515625 178.324219 207.425781 C 177.78125 207.382812 177.152344 207.292969 176.476562 207.246094 C 176.386719 207.246094 176.339844 207.382812 176.433594 207.425781 C 177.199219 207.832031 177.648438 208.648438 178.1875 209.277344 C 178.457031 209.640625 178.820312 209.957031 179.179688 210.183594 C 179.585938 210.410156 179.988281 210.589844 180.441406 210.632812 C 180.800781 210.679688 181.207031 210.679688 181.566406 210.632812 C 181.476562 211.175781 181.339844 211.765625 181.207031 212.304688 C 180.621094 214.476562 179.628906 216.460938 178.457031 218.359375 C 177.648438 219.671875 176.746094 220.890625 175.800781 222.066406 C 175.53125 221.386719 175.351562 220.664062 175.214844 219.898438 C 174.8125 217.773438 174.628906 215.015625 174.628906 211.671875 L 174.628906 179.414062 L 175.757812 179.550781 C 176.386719 179.59375 176.972656 179.6875 177.601562 179.6875 C 177.964844 179.6875 178.324219 179.730469 178.726562 179.730469 C 178.324219 180.5 178.054688 181.355469 177.871094 182.214844 C 177.691406 182.984375 177.601562 183.707031 177.601562 184.476562 C 177.558594 185.242188 177.601562 186.011719 177.738281 186.824219 C 178.007812 188.449219 178.683594 189.988281 179.71875 190.980469 C 179.808594 191.160156 179.898438 191.34375 180.035156 191.523438 C 179.765625 194.234375 180.214844 196.855469 180.710938 199.476562 C 180.53125 199.292969 180.304688 199.113281 180.035156 199.066406 C 179.359375 198.84375 178.503906 199.023438 177.738281 199.25 C 177.289062 199.382812 176.835938 199.609375 176.433594 199.835938 C 176.386719 199.882812 176.433594 199.972656 176.476562 199.972656 C 177.105469 199.882812 177.648438 200.242188 178.1875 200.515625 C 178.457031 200.648438 178.726562 200.785156 179.042969 200.875 C 179.359375 200.964844 179.71875 200.964844 180.035156 200.921875 C 180.351562 200.875 180.621094 200.738281 180.890625 200.605469 C 181.207031 202.1875 181.519531 203.8125 181.699219 205.4375 Z M 180.214844 189.488281 C 180.394531 188.585938 180.621094 187.726562 180.890625 186.914062 C 181.070312 186.371094 181.296875 185.832031 181.566406 185.332031 C 181.835938 184.835938 182.152344 184.339844 182.511719 183.933594 C 182.105469 184.339844 181.789062 184.835938 181.519531 185.332031 C 181.25 185.832031 181.023438 186.371094 180.800781 186.914062 C 180.484375 187.773438 180.214844 188.675781 180.035156 189.625 C 179.945312 188.632812 180.035156 187.636719 180.257812 186.6875 C 180.574219 185.378906 181.207031 184.25 182.105469 183.253906 C 182.554688 182.757812 183.007812 182.351562 183.546875 181.945312 C 184.042969 181.539062 184.539062 181.175781 185.078125 180.769531 C 185.707031 180.316406 186.292969 179.910156 186.925781 179.503906 C 187.328125 179.234375 187.78125 178.960938 188.183594 178.691406 C 187.734375 178.960938 187.285156 179.234375 186.878906 179.503906 C 186.25 179.910156 185.664062 180.273438 185.03125 180.726562 C 184.492188 181.085938 183.996094 181.449219 183.5 181.855469 C 183.007812 182.261719 182.511719 182.667969 182.015625 183.121094 C 181.113281 184.066406 180.441406 185.242188 180.078125 186.597656 C 179.808594 187.636719 179.675781 188.765625 179.765625 189.851562 C 179.628906 189.308594 179.539062 188.765625 179.585938 188.226562 C 179.585938 188.179688 179.585938 188.132812 179.585938 188.132812 C 179.539062 186.824219 179.675781 185.515625 179.988281 184.292969 C 180.351562 183.074219 181.023438 181.945312 181.835938 180.949219 C 182.242188 180.5 182.644531 180.09375 183.097656 179.6875 C 184.539062 178.464844 186.203125 177.5625 187.824219 176.703125 C 188.636719 176.296875 189.445312 175.890625 190.210938 175.4375 C 190.4375 175.347656 190.617188 175.210938 190.84375 175.078125 C 190.84375 175.167969 190.796875 175.257812 190.796875 175.304688 C 190.480469 176.882812 190.210938 178.464844 189.851562 180.003906 C 189.265625 180.003906 188.726562 180.136719 188.183594 180.316406 C 186.835938 180.769531 185.574219 181.71875 184.539062 182.757812 C 183.636719 183.660156 182.828125 184.65625 182.0625 185.738281 C 181.339844 186.914062 180.621094 188.132812 180.214844 189.488281 Z M 180.484375 190.210938 Z M 184.671875 178.015625 C 183.90625 178.511719 183.097656 179.097656 182.421875 179.730469 C 182.285156 179.867188 182.105469 180.046875 181.972656 180.183594 C 182.0625 180.046875 182.152344 179.867188 182.242188 179.730469 C 182.285156 179.640625 182.332031 179.59375 182.375 179.503906 C 182.828125 178.78125 183.320312 178.058594 184.042969 177.5625 C 183.320312 178.015625 182.738281 178.691406 182.242188 179.414062 C 182.195312 179.503906 182.105469 179.59375 182.0625 179.730469 C 181.746094 180.226562 181.429688 180.679688 181.160156 181.175781 C 181.160156 181.175781 181.160156 181.175781 181.160156 181.222656 C 181.113281 181.265625 181.070312 181.355469 181.023438 181.402344 C 181.25 180.859375 181.519531 180.273438 181.789062 179.777344 C 182.285156 178.738281 182.871094 177.742188 183.546875 176.839844 C 182.871094 177.789062 182.195312 178.78125 181.65625 179.777344 C 181.207031 180.632812 180.800781 181.492188 180.441406 182.351562 C 180.167969 182.804688 179.988281 183.253906 179.808594 183.753906 C 179.3125 185.152344 179.179688 186.6875 179.222656 188.269531 C 179.222656 188.316406 179.222656 188.316406 179.222656 188.359375 C 179.222656 188.765625 179.269531 189.171875 179.3125 189.535156 C 178.863281 188.855469 178.546875 188.042969 178.367188 187.230469 C 178.054688 185.832031 178.007812 184.339844 178.234375 182.984375 C 178.414062 181.855469 178.773438 180.726562 179.3125 179.6875 C 179.449219 179.460938 179.539062 179.234375 179.71875 179.007812 C 180.351562 177.96875 181.207031 176.976562 182.242188 176.34375 C 182.511719 176.207031 182.738281 176.070312 183.007812 175.9375 C 183.996094 175.527344 185.167969 175.574219 186.023438 176.070312 C 186.339844 176.253906 186.609375 176.476562 186.835938 176.792969 C 186.023438 177.199219 185.304688 177.5625 184.671875 178.015625 Z M 179.898438 199.566406 C 180.035156 199.65625 180.125 199.699219 180.257812 199.792969 C 180.394531 199.882812 180.484375 199.972656 180.621094 200.015625 C 180.664062 200.0625 180.753906 200.105469 180.800781 200.105469 C 180.800781 200.105469 180.800781 200.152344 180.800781 200.152344 C 180.574219 200.0625 180.351562 200.015625 180.125 199.925781 C 179.988281 199.882812 179.855469 199.835938 179.675781 199.792969 C 179.539062 199.746094 179.359375 199.746094 179.222656 199.699219 C 178.636719 199.609375 178.054688 199.65625 177.421875 199.65625 C 178.007812 199.699219 178.636719 199.65625 179.222656 199.746094 C 179.359375 199.746094 179.492188 199.792969 179.675781 199.835938 C 179.808594 199.882812 179.945312 199.925781 180.078125 199.972656 C 180.304688 200.0625 180.53125 200.152344 180.800781 200.242188 C 180.035156 200.152344 179.3125 200.105469 178.636719 200.289062 C 179.3125 200.152344 180.035156 200.242188 180.753906 200.332031 C 180.257812 200.648438 179.628906 200.738281 179.089844 200.648438 C 178.457031 200.515625 178.007812 200.105469 177.421875 199.882812 C 177.199219 199.792969 176.972656 199.746094 176.746094 199.699219 C 177.015625 199.566406 177.289062 199.429688 177.558594 199.339844 C 177.917969 199.203125 178.324219 199.113281 178.683594 199.023438 C 179.042969 198.976562 179.449219 198.933594 179.765625 199.023438 C 180.035156 199.066406 180.304688 199.203125 180.484375 199.429688 C 180.53125 199.476562 180.621094 199.566406 180.664062 199.609375 C 180.664062 199.746094 180.710938 199.835938 180.710938 199.972656 C 180.664062 199.972656 180.621094 199.925781 180.574219 199.925781 C 180.441406 199.835938 180.304688 199.792969 180.214844 199.699219 C 180.167969 199.699219 180.035156 199.609375 179.898438 199.566406 C 179.765625 199.476562 179.628906 199.429688 179.492188 199.382812 C 179.628906 199.429688 179.765625 199.519531 179.898438 199.566406 Z M 191.113281 182.894531 C 191.023438 183.253906 190.886719 183.617188 190.753906 183.933594 C 190.707031 184.066406 190.664062 184.203125 190.570312 184.339844 C 189.714844 186.191406 188.320312 187.726562 186.472656 188.765625 C 185.664062 189.21875 184.761719 189.535156 183.816406 189.851562 C 183.050781 190.078125 182.285156 190.304688 181.429688 190.484375 C 181.386719 190.4375 181.386719 190.394531 181.339844 190.347656 C 182.464844 189.761719 183.5 189.128906 184.449219 188.496094 C 185.707031 187.636719 186.878906 186.554688 187.914062 185.46875 C 186.835938 186.507812 185.617188 187.546875 184.359375 188.40625 C 183.410156 188.992188 182.421875 189.535156 181.386719 190.078125 C 182.554688 189.039062 183.726562 188.179688 184.808594 187.140625 C 186.292969 185.695312 187.554688 184.160156 188.546875 182.441406 C 187.511719 184.113281 186.203125 185.648438 184.71875 187.050781 C 183.5 188.179688 182.242188 189.082031 180.890625 190.210938 C 180.890625 190.210938 180.84375 190.210938 180.84375 190.210938 C 180.710938 190.210938 180.621094 190.210938 180.53125 190.257812 C 180.753906 189.171875 181.207031 188.179688 181.746094 187.277344 C 182.464844 186.101562 183.277344 185.015625 184.132812 184.023438 C 185.304688 182.667969 186.746094 181.355469 188.457031 180.859375 C 188.636719 180.816406 188.816406 180.769531 188.996094 180.726562 C 189.355469 180.632812 189.714844 180.589844 190.078125 180.589844 C 190.210938 180.589844 190.300781 180.589844 190.4375 180.589844 C 190.664062 180.589844 191.023438 180.589844 191.203125 180.769531 C 191.382812 180.90625 191.382812 181.175781 191.382812 181.402344 C 191.382812 181.898438 191.246094 182.398438 191.113281 182.894531 Z M 191.292969 175.304688 C 191.335938 175.121094 191.382812 174.941406 191.425781 174.761719 C 191.472656 174.582031 191.246094 174.398438 191.066406 174.488281 C 190.300781 174.941406 189.535156 175.347656 188.769531 175.753906 C 188.050781 175.84375 187.375 175.980469 186.652344 176.027344 C 185.84375 175.304688 184.671875 175.03125 183.546875 175.257812 C 182.738281 175.4375 181.925781 175.84375 181.25 176.386719 C 180.890625 176.386719 180.53125 176.386719 180.125 176.386719 L 174.628906 176.386719 L 174.628906 173.765625 C 175.171875 173.675781 175.667969 173.542969 176.160156 173.359375 C 176.386719 173.269531 176.523438 173 176.339844 172.773438 L 175.667969 172.003906 C 176.746094 172.09375 177.78125 172.003906 178.820312 171.824219 C 180.574219 171.554688 182.285156 171.054688 183.996094 170.695312 C 184.222656 170.648438 184.3125 170.332031 184.175781 170.152344 C 183.050781 167.9375 181.972656 165.632812 179.898438 164.234375 C 180.214844 164.144531 180.53125 164.054688 180.84375 163.960938 C 182.691406 163.375 184.265625 162.335938 185.574219 160.9375 C 187.148438 159.265625 188.589844 157.320312 189.898438 155.332031 C 190.078125 155.0625 189.851562 154.65625 189.492188 154.746094 C 188.457031 154.972656 187.464844 154.882812 186.472656 154.699219 C 186.789062 153.886719 186.789062 153.027344 186.789062 152.171875 C 186.835938 151.3125 186.96875 150.226562 187.914062 149.820312 C 188.230469 149.6875 188.230469 149.1875 187.871094 149.097656 C 186.746094 148.871094 185.617188 148.691406 184.492188 148.511719 C 183.816406 148.375 183.050781 148.332031 182.375 148.554688 C 182.78125 147.15625 183.140625 145.800781 183.90625 144.488281 C 184.132812 144.398438 184.175781 144.082031 184.085938 143.902344 C 184.085938 143.902344 184.085938 143.855469 184.042969 143.855469 C 183.953125 143.675781 183.726562 143.585938 183.5 143.722656 C 182.0625 143.585938 180.753906 143.089844 179.402344 142.683594 C 179.945312 142.277344 180.351562 141.597656 180.664062 141.011719 C 181.207031 139.972656 181.789062 138.886719 182.375 137.847656 C 182.554688 137.53125 182.152344 137.214844 181.789062 137.398438 C 180.84375 137.9375 179.808594 137.441406 179.042969 136.988281 C 178.277344 136.539062 177.558594 136.042969 176.65625 135.90625 C 177.152344 134.957031 177.828125 134.007812 178.726562 133.285156 C 179.042969 133.058594 178.863281 132.605469 178.503906 132.605469 C 177.199219 132.605469 175.847656 132.699219 174.496094 132.832031 L 174.496094 129.761719 L 175.351562 129.625 C 177.511719 129.265625 179.628906 128.949219 181.699219 128.675781 C 183.773438 128.40625 185.890625 128.226562 187.960938 128.226562 C 191.472656 128.226562 194.761719 128.8125 197.6875 129.898438 C 200.613281 131.027344 203.179688 132.652344 205.34375 134.730469 C 207.503906 136.808594 209.171875 139.339844 210.339844 142.277344 C 211.511719 145.167969 212.097656 148.421875 212.097656 151.988281 C 212.097656 156.644531 211.152344 160.574219 209.214844 163.691406 C 207.324219 166.765625 204.800781 169.292969 201.785156 171.148438 C 198.769531 173 195.34375 174.308594 191.519531 175.078125 C 191.519531 175.257812 191.382812 175.304688 191.292969 175.304688 Z M 191.292969 175.304688 " fill-opacity="1" fill-rule="nonzero"/></g><g fill="#a37b40" fill-opacity="1"><g transform="translate(90.606424, 198.223607)"><g><path d="M 1.59375 9.75 C 1.5 9.3125 1.46875 8.921875 1.5 8.578125 C 1.539062 8.234375 1.628906 7.929688 1.765625 7.671875 C 1.898438 7.410156 2.070312 7.15625 2.28125 6.90625 C 2.539062 6.632812 2.789062 6.363281 3.03125 6.09375 C 3.28125 5.820312 3.554688 5.539062 3.859375 5.25 C 4.160156 4.96875 4.53125 4.65625 4.96875 4.3125 C 5.164062 4.132812 5.296875 3.925781 5.359375 3.6875 C 5.410156 3.550781 5.4375 3.410156 5.4375 3.265625 C 5.445312 3.128906 5.441406 3.015625 5.421875 2.921875 C 5.421875 2.859375 5.382812 2.816406 5.3125 2.796875 C 5.238281 2.773438 5.160156 2.773438 5.078125 2.796875 L 2.265625 3.34375 C 1.960938 3.40625 1.738281 3.539062 1.59375 3.75 C 1.457031 3.957031 1.382812 4.265625 1.375 4.671875 C 1.382812 4.816406 1.375 4.925781 1.34375 5 C 1.3125 5.070312 1.253906 5.113281 1.171875 5.125 C 1.097656 5.132812 1.039062 5.113281 1 5.0625 C 0.957031 5.019531 0.925781 4.941406 0.90625 4.828125 C 0.863281 4.585938 0.820312 4.34375 0.78125 4.09375 C 0.75 3.851562 0.71875 3.617188 0.6875 3.390625 C 0.65625 3.171875 0.617188 2.960938 0.578125 2.765625 C 0.535156 2.535156 0.484375 2.300781 0.421875 2.0625 C 0.367188 1.832031 0.304688 1.597656 0.234375 1.359375 C 0.171875 1.128906 0.113281 0.890625 0.0625 0.640625 C 0.0390625 0.546875 0.0390625 0.460938 0.0625 0.390625 C 0.09375 0.316406 0.140625 0.273438 0.203125 0.265625 C 0.359375 0.234375 0.476562 0.332031 0.5625 0.5625 C 0.71875 0.9375 0.882812 1.191406 1.0625 1.328125 C 1.238281 1.460938 1.488281 1.492188 1.8125 1.421875 L 8.484375 0.109375 C 8.773438 0.046875 8.992188 -0.0195312 9.140625 -0.09375 C 9.285156 -0.175781 9.382812 -0.285156 9.4375 -0.421875 C 9.488281 -0.566406 9.507812 -0.78125 9.5 -1.0625 C 9.488281 -1.207031 9.507812 -1.3125 9.5625 -1.375 C 9.613281 -1.445312 9.671875 -1.488281 9.734375 -1.5 C 9.804688 -1.519531 9.867188 -1.5 9.921875 -1.4375 C 9.972656 -1.382812 10.007812 -1.300781 10.03125 -1.1875 C 10.09375 -0.882812 10.132812 -0.640625 10.15625 -0.453125 C 10.175781 -0.273438 10.195312 -0.101562 10.21875 0.0625 C 10.238281 0.238281 10.269531 0.441406 10.3125 0.671875 C 10.351562 0.890625 10.398438 1.082031 10.453125 1.25 C 10.515625 1.414062 10.570312 1.601562 10.625 1.8125 C 10.6875 2.019531 10.75 2.285156 10.8125 2.609375 C 11.039062 3.765625 11.015625 4.691406 10.734375 5.390625 C 10.453125 6.085938 9.898438 6.515625 9.078125 6.671875 C 8.628906 6.765625 8.226562 6.75 7.875 6.625 C 7.519531 6.5 7.207031 6.3125 6.9375 6.0625 C 6.675781 5.820312 6.472656 5.554688 6.328125 5.265625 C 6.304688 5.222656 6.273438 5.207031 6.234375 5.21875 C 6.191406 5.226562 6.160156 5.253906 6.140625 5.296875 C 5.734375 5.703125 5.347656 6.085938 4.984375 6.453125 C 4.617188 6.828125 4.28125 7.207031 3.96875 7.59375 C 3.664062 7.976562 3.378906 8.390625 3.109375 8.828125 C 2.878906 9.203125 2.769531 9.554688 2.78125 9.890625 C 2.789062 10.234375 2.828125 10.578125 2.890625 10.921875 C 2.921875 11.078125 2.859375 11.171875 2.703125 11.203125 C 2.515625 11.242188 2.34375 11.195312 2.1875 11.0625 C 2.039062 10.9375 1.914062 10.753906 1.8125 10.515625 C 1.71875 10.273438 1.644531 10.019531 1.59375 9.75 Z M 5.96875 3.296875 C 6.050781 3.710938 6.207031 4.039062 6.4375 4.28125 C 6.675781 4.519531 6.96875 4.675781 7.3125 4.75 C 7.65625 4.832031 8.015625 4.835938 8.390625 4.765625 C 8.847656 4.671875 9.222656 4.539062 9.515625 4.375 C 9.804688 4.207031 10.007812 3.972656 10.125 3.671875 C 10.25 3.378906 10.265625 3 10.171875 2.53125 C 10.128906 2.269531 10.003906 2.109375 9.796875 2.046875 C 9.597656 1.984375 9.21875 2 8.65625 2.09375 C 8.414062 2.132812 8.101562 2.191406 7.71875 2.265625 C 7.34375 2.335938 6.894531 2.425781 6.375 2.53125 C 6.144531 2.582031 6.007812 2.671875 5.96875 2.796875 C 5.925781 2.929688 5.925781 3.097656 5.96875 3.296875 Z M 5.96875 3.296875 "/></g></g></g><g fill="#a37b40" fill-opacity="1"><g transform="translate(94.609417, 215.004923)"><g/></g></g><g fill="#a37b40" fill-opacity="1"><g transform="translate(97.816703, 223.521053)"><g/></g></g><g fill="#a37b40" fill-opacity="1"><g transform="translate(101.788279, 231.85106)"><g><path d="M 0.328125 0.6875 C 0.265625 0.59375 0.234375 0.503906 0.234375 0.421875 C 0.242188 0.335938 0.273438 0.28125 0.328125 0.25 C 0.441406 0.1875 0.59375 0.25 0.78125 0.4375 C 1.050781 0.707031 1.285156 0.875 1.484375 0.9375 C 1.679688 1 1.921875 0.945312 2.203125 0.78125 L 8.15625 -2.84375 C 8.457031 -3.03125 8.632812 -3.21875 8.6875 -3.40625 C 8.738281 -3.59375 8.703125 -3.875 8.578125 -4.25 C 8.523438 -4.382812 8.507812 -4.488281 8.53125 -4.5625 C 8.550781 -4.644531 8.585938 -4.703125 8.640625 -4.734375 C 8.703125 -4.773438 8.765625 -4.773438 8.828125 -4.734375 C 8.890625 -4.703125 8.945312 -4.632812 9 -4.53125 C 9.164062 -4.28125 9.316406 -4.035156 9.453125 -3.796875 C 9.585938 -3.554688 9.710938 -3.320312 9.828125 -3.09375 C 9.953125 -2.875 10.085938 -2.644531 10.234375 -2.40625 C 10.472656 -2.007812 10.734375 -1.585938 11.015625 -1.140625 C 11.304688 -0.691406 11.5625 -0.285156 11.78125 0.078125 C 11.96875 0.347656 12.125 0.570312 12.25 0.75 C 12.375 0.9375 12.445312 1.046875 12.46875 1.078125 C 12.5 1.140625 12.523438 1.207031 12.546875 1.28125 C 12.566406 1.363281 12.539062 1.4375 12.46875 1.5 C 12.195312 1.707031 11.9375 1.925781 11.6875 2.15625 C 11.4375 2.382812 11.207031 2.5625 11 2.6875 C 10.925781 2.726562 10.851562 2.738281 10.78125 2.71875 C 10.71875 2.707031 10.675781 2.679688 10.65625 2.640625 C 10.625 2.585938 10.613281 2.53125 10.625 2.46875 C 10.632812 2.414062 10.660156 2.363281 10.703125 2.3125 C 10.859375 2.113281 10.992188 1.941406 11.109375 1.796875 C 11.222656 1.648438 11.300781 1.507812 11.34375 1.375 C 11.382812 1.1875 11.390625 0.992188 11.359375 0.796875 C 11.335938 0.609375 11.265625 0.410156 11.140625 0.203125 L 10.40625 -1.015625 C 10.3125 -1.171875 10.175781 -1.285156 10 -1.359375 C 9.832031 -1.441406 9.664062 -1.429688 9.5 -1.328125 L 6.921875 0.234375 C 6.828125 0.296875 6.769531 0.367188 6.75 0.453125 C 6.726562 0.546875 6.742188 0.628906 6.796875 0.703125 L 7.515625 1.90625 C 7.660156 2.144531 7.832031 2.273438 8.03125 2.296875 C 8.226562 2.316406 8.457031 2.296875 8.71875 2.234375 C 8.945312 2.179688 9.09375 2.207031 9.15625 2.3125 C 9.175781 2.363281 9.171875 2.421875 9.140625 2.484375 C 9.117188 2.546875 9.066406 2.601562 8.984375 2.65625 C 8.898438 2.695312 8.789062 2.75 8.65625 2.8125 C 8.53125 2.882812 8.398438 2.953125 8.265625 3.015625 C 8.140625 3.085938 8.03125 3.15625 7.9375 3.21875 C 7.832031 3.28125 7.710938 3.351562 7.578125 3.4375 C 7.453125 3.519531 7.328125 3.601562 7.203125 3.6875 C 7.085938 3.769531 6.988281 3.84375 6.90625 3.90625 C 6.820312 3.96875 6.742188 4.003906 6.671875 4.015625 C 6.597656 4.023438 6.546875 4.003906 6.515625 3.953125 C 6.429688 3.804688 6.492188 3.628906 6.703125 3.421875 C 6.898438 3.210938 7.03125 3.019531 7.09375 2.84375 C 7.164062 2.675781 7.148438 2.503906 7.046875 2.328125 L 6.296875 1.109375 C 6.222656 0.992188 6.144531 0.914062 6.0625 0.875 C 5.988281 0.84375 5.890625 0.867188 5.765625 0.953125 L 3.265625 2.46875 C 2.984375 2.632812 2.820312 2.816406 2.78125 3.015625 C 2.738281 3.210938 2.789062 3.4375 2.9375 3.6875 L 3.59375 4.765625 C 3.726562 4.972656 3.875 5.15625 4.03125 5.3125 C 4.1875 5.46875 4.351562 5.582031 4.53125 5.65625 C 4.726562 5.738281 4.953125 5.785156 5.203125 5.796875 C 5.453125 5.804688 5.722656 5.800781 6.015625 5.78125 C 6.109375 5.769531 6.175781 5.769531 6.21875 5.78125 C 6.257812 5.800781 6.296875 5.84375 6.328125 5.90625 C 6.335938 5.957031 6.328125 6.003906 6.296875 6.046875 C 6.273438 6.097656 6.238281 6.140625 6.1875 6.171875 C 6.0625 6.242188 5.890625 6.316406 5.671875 6.390625 C 5.453125 6.472656 5.21875 6.539062 4.96875 6.59375 C 4.726562 6.65625 4.503906 6.710938 4.296875 6.765625 C 4.222656 6.773438 4.15625 6.765625 4.09375 6.734375 C 4.039062 6.710938 3.992188 6.671875 3.953125 6.609375 C 3.828125 6.398438 3.664062 6.128906 3.46875 5.796875 C 3.269531 5.472656 3.054688 5.113281 2.828125 4.71875 C 2.597656 4.332031 2.363281 3.929688 2.125 3.515625 C 1.882812 3.109375 1.65625 2.722656 1.4375 2.359375 C 1.320312 2.171875 1.203125 1.984375 1.078125 1.796875 C 0.953125 1.617188 0.828125 1.441406 0.703125 1.265625 C 0.578125 1.085938 0.453125 0.894531 0.328125 0.6875 Z M 0.328125 0.6875 "/></g></g></g><g fill="#a37b40" fill-opacity="1"><g transform="translate(115.6042, 250.982776)"><g/></g></g><g fill="#a37b40" fill-opacity="1"><g transform="translate(122.100948, 257.553921)"><g><path d="M 6.203125 5.171875 C 6.023438 5.023438 5.816406 4.847656 5.578125 4.640625 C 5.335938 4.429688 5.070312 4.207031 4.78125 3.96875 C 4.488281 3.726562 4.179688 3.472656 3.859375 3.203125 C 3.546875 2.941406 3.242188 2.6875 2.953125 2.4375 C 2.679688 2.21875 2.40625 2 2.125 1.78125 C 1.851562 1.5625 1.582031 1.34375 1.3125 1.125 L 0.375 0.390625 C 0.320312 0.347656 0.320312 0.273438 0.375 0.171875 C 0.425781 0.0664062 0.46875 0.0078125 0.5 0 C 0.613281 -0.0507812 0.753906 -0.109375 0.921875 -0.171875 C 1.097656 -0.242188 1.289062 -0.3125 1.5 -0.375 C 1.707031 -0.4375 1.90625 -0.5 2.09375 -0.5625 C 2.820312 -0.78125 3.523438 -0.992188 4.203125 -1.203125 C 4.878906 -1.421875 5.546875 -1.628906 6.203125 -1.828125 C 6.867188 -2.035156 7.535156 -2.242188 8.203125 -2.453125 C 8.878906 -2.671875 9.582031 -2.898438 10.3125 -3.140625 C 10.351562 -3.148438 10.390625 -3.160156 10.421875 -3.171875 C 10.460938 -3.191406 10.488281 -3.207031 10.5 -3.21875 C 10.53125 -3.25 10.535156 -3.285156 10.515625 -3.328125 C 10.503906 -3.378906 10.46875 -3.441406 10.40625 -3.515625 C 10.238281 -3.660156 10.046875 -3.820312 9.828125 -4 C 9.617188 -4.175781 9.410156 -4.347656 9.203125 -4.515625 C 9.023438 -4.660156 8.851562 -4.796875 8.6875 -4.921875 C 8.53125 -5.054688 8.378906 -5.179688 8.234375 -5.296875 C 7.941406 -5.515625 7.597656 -5.644531 7.203125 -5.6875 C 6.816406 -5.738281 6.4375 -5.671875 6.0625 -5.484375 C 5.9375 -5.429688 5.800781 -5.390625 5.65625 -5.359375 C 5.507812 -5.328125 5.378906 -5.359375 5.265625 -5.453125 C 5.210938 -5.492188 5.191406 -5.539062 5.203125 -5.59375 C 5.210938 -5.644531 5.238281 -5.691406 5.28125 -5.734375 C 5.3125 -5.785156 5.359375 -5.832031 5.421875 -5.875 C 5.492188 -5.925781 5.550781 -5.960938 5.59375 -5.984375 C 5.800781 -6.097656 5.988281 -6.210938 6.15625 -6.328125 C 6.332031 -6.441406 6.5 -6.570312 6.65625 -6.71875 C 6.820312 -6.863281 7 -7.023438 7.1875 -7.203125 C 7.289062 -7.304688 7.375 -7.363281 7.4375 -7.375 C 7.507812 -7.382812 7.578125 -7.363281 7.640625 -7.3125 C 7.710938 -7.257812 7.765625 -7.15625 7.796875 -7 C 7.828125 -6.851562 7.875 -6.71875 7.9375 -6.59375 C 8.039062 -6.445312 8.164062 -6.289062 8.3125 -6.125 C 8.457031 -5.96875 8.640625 -5.800781 8.859375 -5.625 C 9.066406 -5.457031 9.296875 -5.269531 9.546875 -5.0625 C 9.796875 -4.863281 10.046875 -4.660156 10.296875 -4.453125 C 10.472656 -4.316406 10.679688 -4.148438 10.921875 -3.953125 C 11.160156 -3.753906 11.410156 -3.550781 11.671875 -3.34375 C 11.941406 -3.144531 12.195312 -2.953125 12.4375 -2.765625 C 12.675781 -2.585938 12.882812 -2.425781 13.0625 -2.28125 C 13.101562 -2.238281 13.113281 -2.160156 13.09375 -2.046875 C 13.082031 -1.941406 13.054688 -1.878906 13.015625 -1.859375 L 11.265625 -1.34375 C 10.566406 -1.132812 9.890625 -0.925781 9.234375 -0.71875 C 8.585938 -0.507812 7.945312 -0.296875 7.3125 -0.078125 C 6.6875 0.128906 6.050781 0.335938 5.40625 0.546875 C 4.769531 0.753906 4.117188 0.96875 3.453125 1.1875 C 3.316406 1.238281 3.21875 1.300781 3.15625 1.375 C 3.113281 1.414062 3.097656 1.46875 3.109375 1.53125 C 3.128906 1.59375 3.171875 1.65625 3.234375 1.71875 C 3.359375 1.832031 3.515625 1.972656 3.703125 2.140625 C 3.890625 2.316406 4.070312 2.476562 4.25 2.625 C 4.5625 2.875 4.851562 3.09375 5.125 3.28125 C 5.40625 3.476562 5.6875 3.644531 5.96875 3.78125 C 6.5625 4.050781 7.265625 3.960938 8.078125 3.515625 C 8.148438 3.460938 8.222656 3.4375 8.296875 3.4375 C 8.367188 3.445312 8.429688 3.472656 8.484375 3.515625 C 8.585938 3.597656 8.59375 3.691406 8.5 3.796875 C 8.445312 3.867188 8.34375 3.960938 8.1875 4.078125 C 8.03125 4.203125 7.859375 4.332031 7.671875 4.46875 C 7.484375 4.601562 7.300781 4.734375 7.125 4.859375 C 6.945312 4.984375 6.796875 5.085938 6.671875 5.171875 C 6.585938 5.210938 6.503906 5.234375 6.421875 5.234375 C 6.335938 5.242188 6.265625 5.222656 6.203125 5.171875 Z M 6.203125 5.171875 "/></g></g></g><g fill="#a37b40" fill-opacity="1"><g transform="translate(134.016898, 266.622938)"><g/></g></g><g fill="#a37b40" fill-opacity="1"><g transform="translate(141.850944, 271.253199)"><g/></g></g><g fill="#a37b40" fill-opacity="1"><g transform="translate(150.19118, 275.328804)"><g><path d="M 5.8125 2.265625 C 5.082031 2.003906 4.429688 1.648438 3.859375 1.203125 C 3.296875 0.753906 2.835938 0.226562 2.484375 -0.375 C 2.140625 -0.976562 1.925781 -1.628906 1.84375 -2.328125 C 1.757812 -3.023438 1.847656 -3.734375 2.109375 -4.453125 C 2.347656 -5.128906 2.710938 -5.71875 3.203125 -6.21875 C 3.703125 -6.726562 4.285156 -7.125 4.953125 -7.40625 C 5.628906 -7.6875 6.367188 -7.832031 7.171875 -7.84375 C 7.972656 -7.863281 8.800781 -7.722656 9.65625 -7.421875 C 9.988281 -7.304688 10.296875 -7.175781 10.578125 -7.03125 C 10.859375 -6.894531 11.128906 -6.742188 11.390625 -6.578125 C 11.648438 -6.421875 11.890625 -6.242188 12.109375 -6.046875 C 12.203125 -5.972656 12.269531 -5.890625 12.3125 -5.796875 C 12.363281 -5.710938 12.375 -5.609375 12.34375 -5.484375 C 12.269531 -5.179688 12.191406 -4.882812 12.109375 -4.59375 C 12.035156 -4.3125 11.945312 -4.023438 11.84375 -3.734375 C 11.820312 -3.628906 11.765625 -3.570312 11.671875 -3.5625 C 11.578125 -3.550781 11.488281 -3.570312 11.40625 -3.625 C 11.332031 -3.6875 11.296875 -3.78125 11.296875 -3.90625 C 11.316406 -4.207031 11.316406 -4.492188 11.296875 -4.765625 C 11.285156 -5.035156 11.207031 -5.289062 11.0625 -5.53125 C 10.894531 -5.789062 10.660156 -6.035156 10.359375 -6.265625 C 10.066406 -6.492188 9.691406 -6.691406 9.234375 -6.859375 C 8.710938 -7.035156 8.203125 -7.085938 7.703125 -7.015625 C 7.210938 -6.953125 6.75 -6.785156 6.3125 -6.515625 C 5.875 -6.253906 5.488281 -5.914062 5.15625 -5.5 C 4.820312 -5.082031 4.5625 -4.609375 4.375 -4.078125 C 4.164062 -3.460938 4.035156 -2.851562 3.984375 -2.25 C 3.941406 -1.644531 4 -1.078125 4.15625 -0.546875 C 4.320312 -0.0234375 4.578125 0.425781 4.921875 0.8125 C 5.273438 1.207031 5.734375 1.5 6.296875 1.6875 C 7.015625 1.945312 7.648438 2 8.203125 1.84375 C 8.753906 1.695312 9.289062 1.375 9.8125 0.875 C 9.9375 0.738281 10.066406 0.695312 10.203125 0.75 C 10.335938 0.800781 10.378906 0.90625 10.328125 1.0625 C 10.285156 1.164062 10.21875 1.300781 10.125 1.46875 C 10.039062 1.644531 9.9375 1.820312 9.8125 2 C 9.695312 2.175781 9.570312 2.351562 9.4375 2.53125 C 9.351562 2.625 9.269531 2.6875 9.1875 2.71875 C 9.113281 2.757812 9.007812 2.785156 8.875 2.796875 C 8.457031 2.816406 7.984375 2.78125 7.453125 2.6875 C 6.921875 2.601562 6.375 2.460938 5.8125 2.265625 Z M 5.8125 2.265625 "/></g></g></g><g fill="#a37b40" fill-opacity="1"><g transform="translate(166.153378, 280.245938)"><g/></g></g><g fill="#a37b40" fill-opacity="1"><g transform="translate(175.114441, 281.830502)"><g/></g></g><g fill="#a37b40" fill-opacity="1"><g transform="translate(184.373558, 282.741649)"><g><path d="M 5.78125 0.0625 C 5.082031 0.0820312 4.410156 -0.015625 3.765625 -0.234375 C 3.128906 -0.460938 2.5625 -0.789062 2.0625 -1.21875 C 1.570312 -1.65625 1.175781 -2.179688 0.875 -2.796875 C 0.570312 -3.410156 0.410156 -4.097656 0.390625 -4.859375 C 0.367188 -5.554688 0.46875 -6.226562 0.6875 -6.875 C 0.90625 -7.519531 1.234375 -8.097656 1.671875 -8.609375 C 2.109375 -9.117188 2.660156 -9.53125 3.328125 -9.84375 C 3.992188 -10.164062 4.769531 -10.335938 5.65625 -10.359375 C 6.351562 -10.378906 7.019531 -10.273438 7.65625 -10.046875 C 8.289062 -9.828125 8.859375 -9.5 9.359375 -9.0625 C 9.859375 -8.632812 10.253906 -8.113281 10.546875 -7.5 C 10.847656 -6.882812 11.007812 -6.203125 11.03125 -5.453125 C 11.050781 -4.765625 10.953125 -4.09375 10.734375 -3.4375 C 10.523438 -2.789062 10.203125 -2.207031 9.765625 -1.6875 C 9.328125 -1.164062 8.773438 -0.75 8.109375 -0.4375 C 7.441406 -0.125 6.664062 0.0390625 5.78125 0.0625 Z M 6.03125 -0.625 C 6.675781 -0.644531 7.210938 -0.820312 7.640625 -1.15625 C 8.066406 -1.488281 8.382812 -1.953125 8.59375 -2.546875 C 8.800781 -3.148438 8.894531 -3.832031 8.875 -4.59375 C 8.851562 -5.25 8.765625 -5.882812 8.609375 -6.5 C 8.460938 -7.113281 8.242188 -7.660156 7.953125 -8.140625 C 7.660156 -8.617188 7.300781 -8.992188 6.875 -9.265625 C 6.457031 -9.546875 5.960938 -9.679688 5.390625 -9.671875 C 4.742188 -9.648438 4.207031 -9.46875 3.78125 -9.125 C 3.351562 -8.789062 3.039062 -8.328125 2.84375 -7.734375 C 2.644531 -7.148438 2.554688 -6.472656 2.578125 -5.703125 C 2.585938 -5.046875 2.664062 -4.410156 2.8125 -3.796875 C 2.96875 -3.179688 3.1875 -2.632812 3.46875 -2.15625 C 3.757812 -1.675781 4.113281 -1.296875 4.53125 -1.015625 C 4.957031 -0.742188 5.457031 -0.613281 6.03125 -0.625 Z M 6.03125 -0.625 "/></g></g></g><g fill="#a37b40" fill-opacity="1"><g transform="translate(201.854891, 281.59909)"><g/></g></g><g fill="#a37b40" fill-opacity="1"><g transform="translate(210.787181, 279.859718)"><g/></g></g><g fill="#a37b40" fill-opacity="1"><g transform="translate(219.756082, 277.383971)"><g><path d="M 5.421875 -2.140625 C 5.171875 -2.035156 4.859375 -1.914062 4.484375 -1.78125 C 4.117188 -1.644531 3.75 -1.507812 3.375 -1.375 C 3.007812 -1.238281 2.707031 -1.125 2.46875 -1.03125 C 2.28125 -0.945312 2.085938 -0.863281 1.890625 -0.78125 C 1.703125 -0.695312 1.507812 -0.601562 1.3125 -0.5 C 1.113281 -0.394531 0.894531 -0.289062 0.65625 -0.1875 C 0.5625 -0.15625 0.472656 -0.144531 0.390625 -0.15625 C 0.316406 -0.164062 0.265625 -0.203125 0.234375 -0.265625 C 0.203125 -0.359375 0.207031 -0.4375 0.25 -0.5 C 0.289062 -0.5625 0.367188 -0.628906 0.484375 -0.703125 C 0.828125 -0.910156 1.035156 -1.109375 1.109375 -1.296875 C 1.179688 -1.492188 1.15625 -1.75 1.03125 -2.0625 L -1.640625 -8.484375 C -1.773438 -8.804688 -1.929688 -9.003906 -2.109375 -9.078125 C -2.296875 -9.160156 -2.59375 -9.160156 -3 -9.078125 C -3.132812 -9.046875 -3.238281 -9.035156 -3.3125 -9.046875 C -3.382812 -9.066406 -3.441406 -9.125 -3.484375 -9.21875 C -3.503906 -9.28125 -3.488281 -9.34375 -3.4375 -9.40625 C -3.394531 -9.46875 -3.328125 -9.515625 -3.234375 -9.546875 C -3.003906 -9.648438 -2.785156 -9.738281 -2.578125 -9.8125 C -2.367188 -9.894531 -2.160156 -9.972656 -1.953125 -10.046875 C -1.742188 -10.117188 -1.535156 -10.195312 -1.328125 -10.28125 C -1.179688 -10.34375 -0.988281 -10.429688 -0.75 -10.546875 C -0.519531 -10.660156 -0.269531 -10.78125 0 -10.90625 C 0.28125 -11.03125 0.535156 -11.148438 0.765625 -11.265625 C 1.003906 -11.378906 1.203125 -11.46875 1.359375 -11.53125 C 2.160156 -11.863281 2.925781 -12.046875 3.65625 -12.078125 C 4.382812 -12.117188 5.054688 -12.03125 5.671875 -11.8125 C 6.296875 -11.59375 6.84375 -11.25 7.3125 -10.78125 C 7.78125 -10.320312 8.144531 -9.773438 8.40625 -9.140625 C 8.675781 -8.484375 8.816406 -7.8125 8.828125 -7.125 C 8.835938 -6.4375 8.71875 -5.769531 8.46875 -5.125 C 8.226562 -4.488281 7.847656 -3.910156 7.328125 -3.390625 C 6.816406 -2.867188 6.179688 -2.453125 5.421875 -2.140625 Z M 4.9375 -2.6875 C 5.613281 -2.976562 6.125 -3.382812 6.46875 -3.90625 C 6.8125 -4.4375 6.984375 -5.046875 6.984375 -5.734375 C 6.992188 -6.429688 6.835938 -7.171875 6.515625 -7.953125 C 6.242188 -8.597656 5.914062 -9.144531 5.53125 -9.59375 C 5.144531 -10.050781 4.722656 -10.398438 4.265625 -10.640625 C 3.816406 -10.878906 3.347656 -11.015625 2.859375 -11.046875 C 2.378906 -11.078125 1.890625 -10.988281 1.390625 -10.78125 C 1.054688 -10.644531 0.773438 -10.515625 0.546875 -10.390625 C 0.328125 -10.273438 0.175781 -10.148438 0.09375 -10.015625 C 0.0078125 -9.890625 0.015625 -9.71875 0.109375 -9.5 L 2.703125 -3.25 C 2.835938 -2.925781 3.015625 -2.703125 3.234375 -2.578125 C 3.460938 -2.453125 3.71875 -2.40625 4 -2.4375 C 4.289062 -2.46875 4.601562 -2.550781 4.9375 -2.6875 Z M 4.9375 -2.6875 "/></g></g></g><g fill="#a37b40" fill-opacity="1"><g transform="translate(235.674591, 270.032511)"><g/></g></g><g fill="#a37b40" fill-opacity="1"><g transform="translate(243.385503, 265.200033)"><g/></g></g><g fill="#a37b40" fill-opacity="1"><g transform="translate(250.762773, 259.655611)"><g><path d="M 0.59375 -0.453125 C 0.507812 -0.367188 0.429688 -0.320312 0.359375 -0.3125 C 0.285156 -0.300781 0.226562 -0.320312 0.1875 -0.375 C 0.09375 -0.46875 0.125 -0.628906 0.28125 -0.859375 C 0.5 -1.160156 0.613281 -1.414062 0.625 -1.625 C 0.644531 -1.84375 0.546875 -2.078125 0.328125 -2.328125 L -4.40625 -7.4375 C -4.644531 -7.695312 -4.859375 -7.832031 -5.046875 -7.84375 C -5.242188 -7.851562 -5.515625 -7.757812 -5.859375 -7.5625 C -5.984375 -7.476562 -6.082031 -7.4375 -6.15625 -7.4375 C -6.238281 -7.445312 -6.300781 -7.476562 -6.34375 -7.53125 C -6.394531 -7.582031 -6.410156 -7.640625 -6.390625 -7.703125 C -6.378906 -7.773438 -6.332031 -7.851562 -6.25 -7.9375 C -6.019531 -8.132812 -5.800781 -8.320312 -5.59375 -8.5 C -5.394531 -8.6875 -5.195312 -8.859375 -5 -9.015625 C -4.800781 -9.179688 -4.597656 -9.359375 -4.390625 -9.546875 C -4.046875 -9.867188 -3.6875 -10.210938 -3.3125 -10.578125 C -2.9375 -10.941406 -2.59375 -11.269531 -2.28125 -11.5625 C -2.03125 -11.789062 -1.828125 -11.984375 -1.671875 -12.140625 C -1.523438 -12.304688 -1.441406 -12.40625 -1.421875 -12.4375 C -1.359375 -12.488281 -1.289062 -12.53125 -1.21875 -12.5625 C -1.144531 -12.59375 -1.078125 -12.570312 -1.015625 -12.5 C -0.742188 -12.28125 -0.472656 -12.070312 -0.203125 -11.875 C 0.0546875 -11.675781 0.269531 -11.488281 0.4375 -11.3125 C 0.5 -11.238281 0.53125 -11.171875 0.53125 -11.109375 C 0.53125 -11.046875 0.507812 -11 0.46875 -10.96875 C 0.425781 -10.925781 0.375 -10.90625 0.3125 -10.90625 C 0.257812 -10.90625 0.203125 -10.921875 0.140625 -10.953125 C -0.078125 -11.066406 -0.269531 -11.164062 -0.4375 -11.25 C -0.601562 -11.332031 -0.753906 -11.378906 -0.890625 -11.390625 C -1.078125 -11.390625 -1.265625 -11.359375 -1.453125 -11.296875 C -1.640625 -11.242188 -1.820312 -11.132812 -2 -10.96875 L -3.0625 -10 C -3.1875 -9.875 -3.269531 -9.71875 -3.3125 -9.53125 C -3.363281 -9.351562 -3.320312 -9.191406 -3.1875 -9.046875 L -1.140625 -6.84375 C -1.054688 -6.75 -0.96875 -6.703125 -0.875 -6.703125 C -0.789062 -6.710938 -0.710938 -6.75 -0.640625 -6.8125 L 0.390625 -7.765625 C 0.597656 -7.953125 0.691406 -8.140625 0.671875 -8.328125 C 0.648438 -8.523438 0.582031 -8.75 0.46875 -9 C 0.375 -9.195312 0.375 -9.335938 0.46875 -9.421875 C 0.5 -9.460938 0.546875 -9.472656 0.609375 -9.453125 C 0.679688 -9.441406 0.753906 -9.398438 0.828125 -9.328125 C 0.878906 -9.253906 0.953125 -9.160156 1.046875 -9.046875 C 1.140625 -8.929688 1.234375 -8.816406 1.328125 -8.703125 C 1.421875 -8.585938 1.5 -8.492188 1.5625 -8.421875 C 1.65625 -8.328125 1.753906 -8.222656 1.859375 -8.109375 C 1.972656 -8.003906 2.082031 -7.898438 2.1875 -7.796875 C 2.289062 -7.703125 2.378906 -7.617188 2.453125 -7.546875 C 2.535156 -7.460938 2.585938 -7.390625 2.609375 -7.328125 C 2.640625 -7.265625 2.628906 -7.210938 2.578125 -7.171875 C 2.453125 -7.054688 2.265625 -7.082031 2.015625 -7.25 C 1.765625 -7.40625 1.550781 -7.492188 1.375 -7.515625 C 1.195312 -7.546875 1.035156 -7.5 0.890625 -7.375 L -0.171875 -6.390625 C -0.265625 -6.296875 -0.316406 -6.207031 -0.328125 -6.125 C -0.347656 -6.039062 -0.3125 -5.945312 -0.21875 -5.84375 L 1.765625 -3.6875 C 1.992188 -3.445312 2.207031 -3.328125 2.40625 -3.328125 C 2.601562 -3.328125 2.8125 -3.425781 3.03125 -3.625 L 3.953125 -4.484375 C 4.140625 -4.648438 4.289062 -4.820312 4.40625 -5 C 4.53125 -5.1875 4.609375 -5.375 4.640625 -5.5625 C 4.679688 -5.769531 4.679688 -5.992188 4.640625 -6.234375 C 4.609375 -6.484375 4.550781 -6.753906 4.46875 -7.046875 C 4.445312 -7.140625 4.4375 -7.207031 4.4375 -7.25 C 4.445312 -7.289062 4.476562 -7.332031 4.53125 -7.375 C 4.570312 -7.394531 4.617188 -7.394531 4.671875 -7.375 C 4.734375 -7.351562 4.785156 -7.320312 4.828125 -7.28125 C 4.921875 -7.164062 5.023438 -7.007812 5.140625 -6.8125 C 5.253906 -6.625 5.363281 -6.414062 5.46875 -6.1875 C 5.582031 -5.957031 5.6875 -5.742188 5.78125 -5.546875 C 5.8125 -5.472656 5.816406 -5.40625 5.796875 -5.34375 C 5.785156 -5.28125 5.753906 -5.222656 5.703125 -5.171875 C 5.523438 -5.003906 5.289062 -4.796875 5 -4.546875 C 4.71875 -4.296875 4.40625 -4.019531 4.0625 -3.71875 C 3.726562 -3.414062 3.382812 -3.101562 3.03125 -2.78125 C 2.675781 -2.46875 2.34375 -2.164062 2.03125 -1.875 C 1.875 -1.726562 1.71875 -1.578125 1.5625 -1.421875 C 1.40625 -1.265625 1.25 -1.101562 1.09375 -0.9375 C 0.9375 -0.769531 0.769531 -0.609375 0.59375 -0.453125 Z M 0.59375 -0.453125 "/></g></g></g><g fill="#a37b40" fill-opacity="1"><g transform="translate(261.088515, 249.424887)"><g/></g></g><g fill="#a37b40" fill-opacity="1"><g transform="translate(266.774184, 242.319641)"><g/></g></g><g fill="#a37b40" fill-opacity="1"><g transform="translate(272.002069, 234.632105)"><g><path d="M 4.8125 -8.625 C 4.601562 -8.226562 4.378906 -7.90625 4.140625 -7.65625 C 3.898438 -7.414062 3.644531 -7.234375 3.375 -7.109375 C 3.113281 -6.984375 2.820312 -6.890625 2.5 -6.828125 C 2.132812 -6.773438 1.769531 -6.71875 1.40625 -6.65625 C 1.050781 -6.601562 0.660156 -6.554688 0.234375 -6.515625 C -0.179688 -6.472656 -0.660156 -6.453125 -1.203125 -6.453125 C -1.472656 -6.441406 -1.707031 -6.367188 -1.90625 -6.234375 C -2.03125 -6.140625 -2.132812 -6.039062 -2.21875 -5.9375 C -2.3125 -5.832031 -2.378906 -5.738281 -2.421875 -5.65625 C -2.460938 -5.601562 -2.460938 -5.550781 -2.421875 -5.5 C -2.390625 -5.445312 -2.332031 -5.398438 -2.25 -5.359375 L 0.296875 -4.046875 C 0.578125 -3.898438 0.832031 -3.863281 1.0625 -3.9375 C 1.300781 -4.007812 1.550781 -4.207031 1.8125 -4.53125 C 1.894531 -4.632812 1.972656 -4.703125 2.046875 -4.734375 C 2.117188 -4.773438 2.191406 -4.78125 2.265625 -4.75 C 2.328125 -4.707031 2.359375 -4.65625 2.359375 -4.59375 C 2.367188 -4.53125 2.347656 -4.445312 2.296875 -4.34375 C 2.179688 -4.132812 2.0625 -3.921875 1.9375 -3.703125 C 1.8125 -3.492188 1.6875 -3.289062 1.5625 -3.09375 C 1.445312 -2.894531 1.34375 -2.703125 1.25 -2.515625 C 1.144531 -2.316406 1.039062 -2.109375 0.9375 -1.890625 C 0.84375 -1.671875 0.75 -1.445312 0.65625 -1.21875 C 0.570312 -0.988281 0.472656 -0.757812 0.359375 -0.53125 C 0.316406 -0.445312 0.257812 -0.382812 0.1875 -0.34375 C 0.125 -0.300781 0.0664062 -0.296875 0.015625 -0.328125 C -0.117188 -0.398438 -0.15625 -0.554688 -0.09375 -0.796875 C 0.0195312 -1.179688 0.0507812 -1.476562 0 -1.6875 C -0.0625 -1.90625 -0.238281 -2.09375 -0.53125 -2.25 L -6.578125 -5.359375 C -6.847656 -5.492188 -7.0625 -5.578125 -7.21875 -5.609375 C -7.382812 -5.640625 -7.53125 -5.613281 -7.65625 -5.53125 C -7.789062 -5.445312 -7.9375 -5.296875 -8.09375 -5.078125 C -8.1875 -4.960938 -8.273438 -4.890625 -8.359375 -4.859375 C -8.441406 -4.835938 -8.507812 -4.84375 -8.5625 -4.875 C -8.632812 -4.90625 -8.671875 -4.957031 -8.671875 -5.03125 C -8.671875 -5.101562 -8.644531 -5.1875 -8.59375 -5.28125 C -8.445312 -5.5625 -8.328125 -5.78125 -8.234375 -5.9375 C -8.140625 -6.101562 -8.046875 -6.257812 -7.953125 -6.40625 C -7.859375 -6.550781 -7.757812 -6.722656 -7.65625 -6.921875 C -7.550781 -7.128906 -7.46875 -7.3125 -7.40625 -7.46875 C -7.351562 -7.632812 -7.285156 -7.816406 -7.203125 -8.015625 C -7.117188 -8.210938 -7 -8.460938 -6.84375 -8.765625 C -6.3125 -9.804688 -5.71875 -10.515625 -5.0625 -10.890625 C -4.414062 -11.265625 -3.71875 -11.257812 -2.96875 -10.875 C -2.5625 -10.664062 -2.257812 -10.398438 -2.0625 -10.078125 C -1.863281 -9.753906 -1.734375 -9.414062 -1.671875 -9.0625 C -1.617188 -8.707031 -1.617188 -8.367188 -1.671875 -8.046875 C -1.679688 -8.003906 -1.664062 -7.972656 -1.625 -7.953125 C -1.582031 -7.941406 -1.546875 -7.945312 -1.515625 -7.96875 C -0.953125 -8.019531 -0.414062 -8.078125 0.09375 -8.140625 C 0.601562 -8.210938 1.101562 -8.300781 1.59375 -8.40625 C 2.082031 -8.519531 2.566406 -8.664062 3.046875 -8.84375 C 3.453125 -9 3.757812 -9.210938 3.96875 -9.484375 C 4.175781 -9.753906 4.359375 -10.046875 4.515625 -10.359375 C 4.585938 -10.492188 4.691406 -10.523438 4.828125 -10.453125 C 5.003906 -10.359375 5.109375 -10.21875 5.140625 -10.03125 C 5.179688 -9.84375 5.164062 -9.625 5.09375 -9.375 C 5.03125 -9.125 4.9375 -8.875 4.8125 -8.625 Z M -2.625 -6.28125 C -2.425781 -6.65625 -2.34375 -7.007812 -2.375 -7.34375 C -2.414062 -7.6875 -2.539062 -7.992188 -2.75 -8.265625 C -2.96875 -8.546875 -3.25 -8.773438 -3.59375 -8.953125 C -4.007812 -9.160156 -4.382812 -9.289062 -4.71875 -9.34375 C -5.0625 -9.394531 -5.375 -9.335938 -5.65625 -9.171875 C -5.945312 -9.015625 -6.203125 -8.722656 -6.421875 -8.296875 C -6.535156 -8.066406 -6.53125 -7.863281 -6.40625 -7.6875 C -6.289062 -7.519531 -5.976562 -7.296875 -5.46875 -7.015625 C -5.257812 -6.910156 -4.984375 -6.769531 -4.640625 -6.59375 C -4.304688 -6.414062 -3.898438 -6.207031 -3.421875 -5.96875 C -3.222656 -5.863281 -3.0625 -5.84375 -2.9375 -5.90625 C -2.8125 -5.976562 -2.707031 -6.101562 -2.625 -6.28125 Z M -2.625 -6.28125 "/></g></g></g><g fill="#a37b40" fill-opacity="1"><g transform="translate(279.292574, 218.99619)"><g/></g></g><g fill="#a37b40" fill-opacity="1"><g transform="translate(282.071472, 210.330802)"><g/></g></g><g fill="#a37b40" fill-opacity="1"><g transform="translate(284.032934, 201.444647)"><g/></g></g></svg>